Exo2-Bold.ufo
<glyph name="exclam" format="2">
  <advance width="329"/>
  <unicode hex="0021"/>
  <outline>
    <contour>
      <point x="268" y="695" type="line"/>
      <point x="60" y="695" type="line"/>
      <point x="60" y="461" type="line"/>
      <point x="82" y="227" type="line"/>
      <point x="246" y="227" type="line"/>
      <point x="268" y="461" type="line"/>
    </contour>
    <contour>
      <point x="188" y="185" type="curve" smooth="yes"/>
      <point x="141" y="185" type="line" smooth="yes"/>
      <point x="86" y="185"/>
      <point x="69" y="168"/>
      <point x="69" y="113" type="curve" smooth="yes"/>
      <point x="69" y="72" type="line" smooth="yes"/>
      <point x="69" y="17"/>
      <point x="86" y="0"/>
      <point x="141" y="0" type="curve" smooth="yes"/>
      <point x="188" y="0" type="line" smooth="yes"/>
      <point x="243" y="0"/>
      <point x="260" y="17"/>
      <point x="260" y="72" type="curve" smooth="yes"/>
      <point x="260" y="113" type="line" smooth="yes"/>
      <point x="260" y="168"/>
      <point x="243" y="185"/>
    </contour>
  </outline>
</glyph>
<glyph name="parenleft" format="2">
  <advance width="372"/>
  <unicode hex="0028"/>
  <outline>
    <contour>
      <point x="342" y="790" type="line"/>
      <point x="123" y="734"/>
      <point x="25" y="584"/>
      <point x="25" y="312" type="curve" smooth="yes"/>
      <point x="25" y="42"/>
      <point x="123" y="-108"/>
      <point x="342" y="-165" type="curve"/>
      <point x="366" y="-77" type="line"/>
      <point x="262" y="-31"/>
      <point x="228" y="113"/>
      <point x="228" y="313" type="curve" smooth="yes"/>
      <point x="228" y="517"/>
      <point x="262" y="660"/>
      <point x="366" y="702" type="curve"/>
    </contour>
  </outline>
</glyph>
<glyph name="hyphen" format="2">
  <advance width="379"/>
  <unicode hex="002D"/>
  <outline>
    <contour>
      <point x="335" y="318" type="line"/>
      <point x="44" y="318" type="line"/>
      <point x="44" y="196" type="line"/>
      <point x="335" y="196" type="line"/>
    </contour>
  </outline>
</glyph>
<glyph name="slash" format="2">
  <advance width="588"/>
  <unicode hex="002F"/>
  <outline>
    <contour>
      <point x="573" y="690" type="line"/>
      <point x="408" y="690" type="line"/>
      <point x="15" y="-79" type="line"/>
      <point x="180" y="-79" type="line"/>
    </contour>
  </outline>
</glyph>
<glyph name="zero" format="2">
  <advance width="658"/>
  <unicode hex="0030"/>
  <guideline x="329" y="414" angle="90"/>
  <outline>
    <contour>
      <point x="328" y="704" type="curve" smooth="yes"/>
      <point x="109" y="704"/>
      <point x="34" y="619"/>
      <point x="34" y="345" type="curve" smooth="yes"/>
      <point x="34" y="71"/>
      <point x="109" y="-14"/>
      <point x="328" y="-14" type="curve" smooth="yes"/>
      <point x="548" y="-14"/>
      <point x="624" y="71"/>
      <point x="624" y="345" type="curve" smooth="yes"/>
      <point x="624" y="619"/>
      <point x="548" y="704"/>
    </contour>
    <contour>
      <point x="327" y="543" type="curve" smooth="yes"/>
      <point x="393" y="543"/>
      <point x="409" y="523"/>
      <point x="409" y="345" type="curve" smooth="yes"/>
      <point x="409" y="167"/>
      <point x="393" y="147"/>
      <point x="327" y="147" type="curve" smooth="yes"/>
      <point x="264" y="147"/>
      <point x="249" y="167"/>
      <point x="249" y="345" type="curve" smooth="yes"/>
      <point x="249" y="523"/>
      <point x="264" y="543"/>
    </contour>
  </outline>
</glyph>
<glyph name="equal" format="2">
  <advance width="571"/>
  <unicode hex="003D"/>
  <outline>
    <contour>
      <point x="526" y="483" type="line"/>
      <point x="45" y="483" type="line"/>
      <point x="45" y="337" type="line"/>
      <point x="526" y="337" type="line"/>
    </contour>
    <contour>
      <point x="526" y="267" type="line"/>
      <point x="45" y="267" type="line"/>
      <point x="45" y="121" type="line"/>
      <point x="526" y="121" type="line"/>
    </contour>
  </outline>
</glyph>
<glyph name="greater" format="2">
  <advance width="502"/>
  <unicode hex="003E"/>
  <outline>
    <contour>
      <point x="44" y="541" type="line"/>
      <point x="44" y="378" type="line"/>
      <point x="300" y="303" type="line"/>
      <point x="44" y="228" type="line"/>
      <point x="44" y="65" type="line"/>
      <point x="476" y="223" type="line"/>
      <point x="476" y="384" type="line"/>
    </contour>
  </outline>
</glyph>
<glyph name="at" format="2">
  <advance width="801"/>
  <unicode hex="0040"/>
  <outline>
    <contour>
      <point x="561" y="617" type="curve" smooth="yes"/>
      <point x="399" y="617" type="line" smooth="yes"/>
      <point x="75" y="617"/>
      <point x="39" y="572"/>
      <point x="39" y="270" type="curve" smooth="yes"/>
      <point x="39" y="-34"/>
      <point x="80" y="-79"/>
      <point x="451" y="-79" type="curve" smooth="yes"/>
      <point x="554" y="-79"/>
      <point x="658" y="-71"/>
      <point x="760" y="-62" type="curve"/>
      <point x="760" y="66" type="line"/>
      <point x="451" y="66" type="line" smooth="yes"/>
      <point x="253" y="66"/>
      <point x="230" y="56"/>
      <point x="230" y="270" type="curve" smooth="yes"/>
      <point x="230" y="473"/>
      <point x="248" y="473"/>
      <point x="399" y="474" type="curve" smooth="yes"/>
      <point x="517" y="474" type="line" smooth="yes"/>
      <point x="555" y="474"/>
      <point x="567" y="461"/>
      <point x="567" y="429" type="curve" smooth="yes"/>
      <point x="567" y="416" type="line"/>
      <point x="426" y="416" type="line" smooth="yes"/>
      <point x="335" y="416"/>
      <point x="279" y="371"/>
      <point x="279" y="298" type="curve" smooth="yes"/>
      <point x="279" y="253" type="line" smooth="yes"/>
      <point x="279" y="169"/>
      <point x="351" y="125"/>
      <point x="434" y="125" type="curve" smooth="yes"/>
      <point x="510" y="125"/>
      <point x="560" y="163"/>
      <point x="590" y="201" type="curve"/>
      <point x="606" y="138" type="line"/>
      <point x="759" y="138" type="line"/>
      <point x="759" y="428" type="line" smooth="yes"/>
      <point x="759" y="570"/>
      <point x="689" y="617"/>
    </contour>
    <contour>
      <point x="567" y="329" type="line"/>
      <point x="567" y="275" type="line"/>
      <point x="546" y="262"/>
      <point x="521" y="254"/>
      <point x="501" y="254" type="curve" smooth="yes"/>
      <point x="477" y="254"/>
      <point x="464" y="266"/>
      <point x="464" y="282" type="curve" smooth="yes"/>
      <point x="464" y="296" type="line" smooth="yes"/>
      <point x="464" y="312"/>
      <point x="476" y="322"/>
      <point x="498" y="324" type="curve" smooth="yes"/>
    </contour>
  </outline>
</glyph>
<glyph name="E" format="2">
  <advance width="596"/>
  <unicode hex="0045"/>
  <guideline x="146" y="538" angle="0"/>
  <anchor x="317" y="0" name="bottom"/>
  <anchor x="568" y="9" name="ogonek"/>
  <anchor x="323" y="735" name="top"/>
  <outline>
    <contour>
      <point x="209" y="694" type="curve" smooth="yes"/>
      <point x="114" y="694"/>
      <point x="47" y="630"/>
      <point x="47" y="537" type="curve" smooth="yes"/>
      <point x="47" y="153" type="line" smooth="yes"/>
      <point x="47" y="60"/>
      <point x="114" y="-4"/>
      <point x="209" y="-4" type="curve" smooth="yes"/>
      <point x="328" y="-4"/>
      <point x="468" y="-4"/>
      <point x="568" y="9" type="curve"/>
      <point x="558" y="162" type="line"/>
      <point x="305" y="162" type="line" smooth="yes"/>
      <point x="280" y="162"/>
      <point x="264" y="177"/>
      <point x="264" y="198" type="curve" smooth="yes"/>
      <point x="264" y="492" type="line" smooth="yes"/>
      <point x="264" y="513"/>
      <point x="280" y="528"/>
      <point x="305" y="528" type="curve" smooth="yes"/>
      <point x="558" y="528" type="line"/>
      <point x="568" y="681" type="line"/>
      <point x="468" y="694"/>
      <point x="328" y="694"/>
    </contour>
    <contour>
      <point x="65" y="425" type="line"/>
      <point x="65" y="281" type="line"/>
      <point x="522" y="281" type="line"/>
      <point x="522" y="425" type="line"/>
    </contour>
  </outline>
</glyph>
<glyph name="J" format="2">
  <advance width="404"/>
  <unicode hex="004A"/>
  <anchor x="248" y="0" name="bottom"/>
  <anchor x="250" y="735" name="top"/>
  <outline>
    <contour>
      <point x="354" y="690" type="line"/>
      <point x="139" y="690" type="line"/>
      <point x="139" y="183" type="line" smooth="yes"/>
      <point x="139" y="158"/>
      <point x="120" y="148"/>
      <point x="80" y="148" type="curve" smooth="yes"/>
      <point x="33" y="148" type="line"/>
      <point x="10" y="12" type="line"/>
      <point x="44" y="-6"/>
      <point x="127" y="-14"/>
      <point x="171" y="-14" type="curve" smooth="yes"/>
      <point x="284" y="-14"/>
      <point x="354" y="37"/>
      <point x="354" y="127" type="curve" smooth="yes"/>
    </contour>
  </outline>
</glyph>
<glyph name="O" format="2">
  <advance width="707"/>
  <unicode hex="004F"/>
  <anchor x="352" y="-12" name="bottom"/>
  <anchor x="409" y="0" name="ogonek"/>
  <anchor x="352" y="735" name="top"/>
  <outline>
    <contour>
      <point x="353" y="704" type="curve" smooth="yes"/>
      <point x="117" y="704"/>
      <point x="32" y="629"/>
      <point x="32" y="345" type="curve" smooth="yes"/>
      <point x="32" y="61"/>
      <point x="117" y="-14"/>
      <point x="353" y="-14" type="curve" smooth="yes"/>
      <point x="590" y="-14"/>
      <point x="675" y="61"/>
      <point x="675" y="345" type="curve" smooth="yes"/>
      <point x="675" y="629"/>
      <point x="590" y="704"/>
    </contour>
    <contour>
      <point x="353" y="543" type="curve" smooth="yes"/>
      <point x="427" y="543"/>
      <point x="446" y="505"/>
      <point x="446" y="345" type="curve" smooth="yes"/>
      <point x="446" y="185"/>
      <point x="427" y="147"/>
      <point x="353" y="147" type="curve" smooth="yes"/>
      <point x="279" y="147"/>
      <point x="260" y="185"/>
      <point x="260" y="345" type="curve" smooth="yes"/>
      <point x="260" y="505"/>
      <point x="279" y="543"/>
    </contour>
  </outline>
</glyph>
<glyph name="V" format="2">
  <advance width="670"/>
  <unicode hex="0056"/>
  <outline>
    <contour>
      <point x="672" y="690" type="line"/>
      <point x="449" y="690" type="line"/>
      <point x="360" y="241" type="line" smooth="yes"/>
      <point x="355" y="216"/>
      <point x="350" y="187"/>
      <point x="347" y="162" type="curve"/>
      <point x="323" y="162" type="line"/>
      <point x="319" y="187"/>
      <point x="315" y="216"/>
      <point x="310" y="241" type="curve" smooth="yes"/>
      <point x="221" y="690" type="line"/>
      <point x="-2" y="690" type="line"/>
      <point x="166" y="58" type="line" smooth="yes"/>
      <point x="174" y="23"/>
      <point x="203" y="0"/>
      <point x="240" y="0" type="curve" smooth="yes"/>
      <point x="430" y="0" type="line" smooth="yes"/>
      <point x="467" y="0"/>
      <point x="496" y="23"/>
      <point x="504" y="58" type="curve" smooth="yes"/>
    </contour>
  </outline>
</glyph>
<glyph name="b" format="2">
  <advance width="618"/>
  <unicode hex="0062"/>
  <outline>
    <contour>
      <point x="402" y="514" type="curve" smooth="yes"/>
      <point x="326" y="514"/>
      <point x="258" y="465"/>
      <point x="217" y="418" type="curve"/>
      <point x="232" y="336" type="line"/>
      <point x="258" y="346"/>
      <point x="279" y="357"/>
      <point x="314" y="357" type="curve" smooth="yes"/>
      <point x="362" y="357"/>
      <point x="375" y="340"/>
      <point x="375" y="255" type="curve" smooth="yes"/>
      <point x="375" y="153"/>
      <point x="361" y="132"/>
      <point x="318" y="129" type="curve" smooth="yes"/>
      <point x="290" y="127"/>
      <point x="229" y="134"/>
      <point x="210" y="143" type="curve"/>
      <point x="42" y="30" type="line"/>
      <point x="100" y="0"/>
      <point x="249" y="-12"/>
      <point x="322" y="-12" type="curve" smooth="yes"/>
      <point x="550" y="-12"/>
      <point x="591" y="121"/>
      <point x="591" y="256" type="curve" smooth="yes"/>
      <point x="591" y="439"/>
      <point x="542" y="514"/>
    </contour>
    <contour>
      <point x="252" y="700" type="line"/>
      <point x="42" y="700" type="line"/>
      <point x="42" y="30" type="line"/>
      <point x="252" y="20" type="line"/>
      <point x="252" y="406" type="line"/>
      <point x="231" y="418" type="line"/>
      <point x="248" y="461"/>
      <point x="255" y="513"/>
      <point x="254" y="561" type="curve" smooth="yes"/>
    </contour>
  </outline>
</glyph>
<glyph name="g" format="2">
  <advance width="604"/>
  <unicode hex="0067"/>
  <anchor x="292" y="547" name="top"/>
  <outline>
    <contour>
      <point x="288" y="514" type="curve" smooth="yes"/>
      <point x="99" y="514"/>
      <point x="29" y="471"/>
      <point x="29" y="356" type="curve" smooth="yes"/>
      <point x="29" y="240"/>
      <point x="98" y="198"/>
      <point x="287" y="198" type="curve" smooth="yes"/>
      <point x="477" y="198"/>
      <point x="544" y="240"/>
      <point x="544" y="356" type="curve" smooth="yes"/>
      <point x="544" y="471"/>
      <point x="476" y="514"/>
    </contour>
    <contour>
      <point x="287" y="399" type="curve" smooth="yes"/>
      <point x="336" y="399"/>
      <point x="349" y="391"/>
      <point x="349" y="356" type="curve" smooth="yes"/>
      <point x="349" y="321"/>
      <point x="336" y="312"/>
      <point x="287" y="312" type="curve" smooth="yes"/>
      <point x="238" y="312"/>
      <point x="224" y="321"/>
      <point x="224" y="356" type="curve" smooth="yes"/>
      <point x="224" y="391"/>
      <point x="238" y="399"/>
    </contour>
    <contour>
      <point x="601" y="500" type="line"/>
      <point x="414" y="500" type="line"/>
      <point x="451" y="399" type="line"/>
      <point x="591" y="423" type="line"/>
    </contour>
    <contour>
      <point x="128" y="226" type="line"/>
      <point x="37" y="202"/>
      <point x="23" y="41"/>
      <point x="173" y="29" type="curve" smooth="yes"/>
      <point x="309" y="19" type="line" smooth="yes"/>
      <point x="363" y="15"/>
      <point x="387" y="13"/>
      <point x="387" y="-12" type="curve" smooth="yes"/>
      <point x="387" y="-34"/>
      <point x="367" y="-39"/>
      <point x="291" y="-39" type="curve" smooth="yes"/>
      <point x="222" y="-39"/>
      <point x="203" y="-33"/>
      <point x="203" y="-7" type="curve" smooth="yes"/>
      <point x="203" y="24"/>
      <point x="220" y="23"/>
      <point x="281" y="66" type="curve" smooth="yes"/>
      <point x="313" y="83" type="line"/>
      <point x="245" y="109" type="line"/>
      <point x="159" y="90" type="line" smooth="yes"/>
      <point x="37" y="61"/>
      <point x="7" y="23"/>
      <point x="7" y="-39" type="curve" smooth="yes"/>
      <point x="7" y="-142"/>
      <point x="55" y="-181"/>
      <point x="294" y="-181" type="curve" smooth="yes"/>
      <point x="497" y="-181"/>
      <point x="583" y="-155"/>
      <point x="583" y="-13" type="curve" smooth="yes"/>
      <point x="583" y="86"/>
      <point x="537" y="136"/>
      <point x="423" y="144" type="curve" smooth="yes"/>
      <point x="241" y="156" type="line" smooth="yes"/>
      <point x="195" y="159"/>
      <point x="202" y="204"/>
      <point x="225" y="209" type="curve"/>
    </contour>
  </outline>
</glyph>
<glyph name="i" format="2">
  <advance width="303"/>
  <unicode hex="0069"/>
  <anchor x="151" y="-12" name="bottom"/>
  <anchor x="238" y="0" name="ogonek"/>
  <anchor x="150" y="557" name="top"/>
  <outline>
    <contour>
      <point x="256" y="500" type="line"/>
      <point x="47" y="500" type="line"/>
      <point x="47" y="0" type="line"/>
      <point x="256" y="0" type="line"/>
    </contour>
    <contour>
      <point x="196" y="729" type="curve" smooth="yes"/>
      <point x="107" y="729" type="line" smooth="yes"/>
      <point x="66" y="729"/>
      <point x="46" y="709"/>
      <point x="46" y="667" type="curve" smooth="yes"/>
      <point x="46" y="616" type="line" smooth="yes"/>
      <point x="46" y="574"/>
      <point x="66" y="554"/>
      <point x="107" y="554" type="curve" smooth="yes"/>
      <point x="196" y="554" type="line" smooth="yes"/>
      <point x="237" y="554"/>
      <point x="257" y="574"/>
      <point x="257" y="616" type="curve" smooth="yes"/>
      <point x="257" y="667" type="line" smooth="yes"/>
      <point x="257" y="709"/>
      <point x="237" y="729"/>
    </contour>
  </outline>
</glyph>
<glyph name="p" format="2">
  <advance width="620"/>
  <unicode hex="0070"/>
  <outline>
    <contour>
      <point x="412" y="512" type="curve" smooth="yes"/>
      <point x="325" y="512"/>
      <point x="247" y="470"/>
      <point x="221" y="421" type="curve"/>
      <point x="250" y="342" type="line"/>
      <point x="271" y="352"/>
      <point x="287" y="361"/>
      <point x="322" y="361" type="curve" smooth="yes"/>
      <point x="360" y="361"/>
      <point x="376" y="350"/>
      <point x="376" y="242" type="curve" smooth="yes"/>
      <point x="376" y="135"/>
      <point x="360" y="123"/>
      <point x="319" y="123" type="curve" smooth="yes"/>
      <point x="278" y="123"/>
      <point x="258" y="135"/>
      <point x="231" y="144" type="curve"/>
      <point x="217" y="62" type="line"/>
      <point x="257" y="6"/>
      <point x="327" y="-14"/>
      <point x="403" y="-14" type="curve" smooth="yes"/>
      <point x="527" y="-14"/>
      <point x="592" y="38"/>
      <point x="592" y="244" type="curve" smooth="yes"/>
      <point x="592" y="414"/>
      <point x="542" y="512"/>
    </contour>
    <contour>
      <point x="211" y="500" type="line"/>
      <point x="43" y="500" type="line"/>
      <point x="43" y="-180" type="line"/>
      <point x="253" y="-180" type="line"/>
      <point x="253" y="-81" type="line" smooth="yes"/>
      <point x="254" y="-34"/>
      <point x="251" y="19"/>
      <point x="247" y="62" type="curve"/>
      <point x="253" y="74" type="line"/>
      <point x="253" y="405" type="line"/>
      <point x="231" y="421" type="line"/>
    </contour>
  </outline>
</glyph>
<glyph name="z" format="2">
  <advance width="541"/>
  <unicode hex="007A"/>
  <anchor x="283" y="-12" name="bottom"/>
  <anchor x="282" y="557" name="top"/>
  <outline>
    <contour>
      <point x="262" y="366" type="line"/>
      <point x="29" y="135" type="line"/>
      <point x="273" y="134" type="line"/>
      <point x="506" y="365" type="line"/>
    </contour>
    <contour>
      <point x="512" y="135" type="line"/>
      <point x="29" y="135" type="line"/>
      <point x="29" y="0" type="line"/>
      <point x="512" y="0" type="line"/>
    </contour>
    <contour>
      <point x="506" y="500" type="line"/>
      <point x="35" y="500" type="line"/>
      <point x="35" y="365" type="line"/>
      <point x="506" y="365" type="line"/>
    </contour>
  </outline>
</glyph>
<glyph name="braceright" format="2">
  <advance width="359"/>
  <unicode hex="007D"/>
  <outline>
    <contour>
      <point x="29" y="768" type="curve"/>
      <point x="29" y="640" type="line"/>
      <point x="77" y="640"/>
      <point x="92" y="641"/>
      <point x="92" y="602" type="curve" smooth="yes"/>
      <point x="92" y="477" type="line" smooth="yes"/>
      <point x="90" y="392"/>
      <point x="114" y="341"/>
      <point x="208" y="328" type="curve"/>
      <point x="114" y="303"/>
      <point x="89" y="253"/>
      <point x="88" y="183" type="curve" smooth="yes"/>
      <point x="88" y="-2" type="line" smooth="yes"/>
      <point x="88" y="-41"/>
      <point x="73" y="-37"/>
      <point x="25" y="-37" type="curve"/>
      <point x="25" y="-165" type="line"/>
      <point x="211" y="-195"/>
      <point x="288" y="-122"/>
      <point x="288" y="-19" type="curve" smooth="yes"/>
      <point x="288" y="203" type="line" smooth="yes"/>
      <point x="288" y="246"/>
      <point x="302" y="249"/>
      <point x="337" y="263" type="curve"/>
      <point x="337" y="393" type="line"/>
      <point x="300" y="405"/>
      <point x="292" y="405"/>
      <point x="292" y="457" type="curve" smooth="yes"/>
      <point x="292" y="622" type="line" smooth="yes"/>
      <point x="292" y="725"/>
      <point x="215" y="798"/>
    </contour>
  </outline>
</glyph>
<glyph name="micro" format="2">
  <advance width="636"/>
  <unicode hex="00B5"/>
  <outline>
    <contour>
      <point x="253" y="500" type="line"/>
      <point x="43" y="500" type="line"/>
      <point x="43" y="129" type="line"/>
      <point x="43" y="18"/>
      <point x="125" y="-14"/>
      <point x="223" y="-14" type="curve" smooth="yes"/>
      <point x="287" y="-14"/>
      <point x="337" y="31"/>
      <point x="362" y="84" type="curve"/>
      <point x="359" y="314" type="line"/>
      <point x="358" y="207"/>
      <point x="315" y="162"/>
      <point x="283" y="162" type="curve" smooth="yes"/>
      <point x="265" y="162"/>
      <point x="253" y="166"/>
      <point x="253" y="208" type="curve" smooth="yes"/>
    </contour>
    <contour>
      <point x="252" y="118" type="line"/>
      <point x="43" y="186" type="line"/>
      <point x="43" y="-180" type="line"/>
      <point x="226" y="-180" type="line"/>
      <point x="252" y="-65" type="line"/>
    </contour>
    <contour>
      <point x="568" y="500" type="line"/>
      <point x="359" y="500" type="line"/>
      <point x="359" y="100" type="line"/>
      <point x="362" y="84" type="line"/>
      <point x="362" y="81" type="line" smooth="yes"/>
      <point x="362" y="14"/>
      <point x="418" y="-13"/>
      <point x="483" y="-13" type="curve" smooth="yes"/>
      <point x="539" y="-13"/>
      <point x="592" y="1"/>
      <point x="630" y="15" type="curve"/>
      <point x="623" y="117" type="line"/>
      <point x="593" y="117" type="line" smooth="yes"/>
      <point x="572" y="117"/>
      <point x="568" y="130"/>
      <point x="568" y="162" type="curve" smooth="yes"/>
    </contour>
  </outline>
</glyph>
<glyph name="cedilla" format="2">
  <advance width="263"/>
  <unicode hex="00B8"/>
  <guideline x="50" y="-104" angle="74.6443"/>
  <anchor x="140" y="0" name="_bottom"/>
  <outline>
    <contour>
      <point x="72" y="-33" type="curve"/>
      <point x="53" y="-105" type="line"/>
      <point x="116" y="-105"/>
      <point x="125" y="-102"/>
      <point x="123" y="-116" type="curve" smooth="yes"/>
      <point x="119" y="-163"/>
      <point x="80" y="-167"/>
      <point x="36" y="-167" type="curve"/>
      <point x="14" y="-245" type="line"/>
      <point x="139" y="-262"/>
      <point x="243" y="-213"/>
      <point x="248" y="-98" type="curve" smooth="yes"/>
      <point x="252" y="-18"/>
      <point x="197" y="-19"/>
    </contour>
  </outline>
</glyph>
<glyph name="questiondown" format="2">
  <advance width="531"/>
  <unicode hex="00BF"/>
  <outline>
    <contour>
      <point x="365" y="291" type="curve"/>
      <point x="201" y="291" type="line"/>
      <point x="181" y="127"/>
      <point x="19" y="106"/>
      <point x="19" y="-39" type="curve" smooth="yes"/>
      <point x="19" y="-145"/>
      <point x="92" y="-194"/>
      <point x="246" y="-194" type="curve" smooth="yes"/>
      <point x="388" y="-194"/>
      <point x="427" y="-182"/>
      <point x="510" y="-166" type="curve"/>
      <point x="505" y="-28" type="line"/>
      <point x="435" y="-28"/>
      <point x="401" y="-28"/>
      <point x="298" y="-28" type="curve" smooth="yes"/>
      <point x="252" y="-28"/>
      <point x="236" y="-20"/>
      <point x="242" y="5" type="curve" smooth="yes"/>
      <point x="252" y="52"/>
      <point x="375" y="125"/>
    </contour>
    <contour>
      <point x="307" y="518" type="curve" smooth="yes"/>
      <point x="260" y="518" type="line" smooth="yes"/>
      <point x="205" y="518"/>
      <point x="188" y="501"/>
      <point x="188" y="446" type="curve" smooth="yes"/>
      <point x="188" y="405" type="line" smooth="yes"/>
      <point x="188" y="350"/>
      <point x="205" y="333"/>
      <point x="260" y="333" type="curve" smooth="yes"/>
      <point x="307" y="333" type="line" smooth="yes"/>
      <point x="362" y="333"/>
      <point x="379" y="350"/>
      <point x="379" y="405" type="curve" smooth="yes"/>
      <point x="379" y="446" type="line" smooth="yes"/>
      <point x="379" y="501"/>
      <point x="362" y="518"/>
    </contour>
  </outline>
</glyph>
<glyph name="germandbls" format="2">
  <advance width="738"/>
  <unicode hex="00DF"/>
  <outline>
    <contour>
      <point x="368" y="742" type="curve" smooth="yes"/>
      <point x="164" y="742"/>
      <point x="90" y="697"/>
      <point x="90" y="566" type="curve" smooth="yes"/>
      <point x="90" y="0" type="line"/>
      <point x="300" y="0" type="line"/>
      <point x="300" y="541" type="line" smooth="yes"/>
      <point x="300" y="592"/>
      <point x="311" y="602"/>
      <point x="370" y="602" type="curve" smooth="yes"/>
      <point x="425" y="602"/>
      <point x="436" y="594"/>
      <point x="436" y="560" type="curve" smooth="yes"/>
      <point x="436" y="536"/>
      <point x="428" y="522"/>
      <point x="402" y="484" type="curve" smooth="yes"/>
      <point x="365" y="430"/>
      <point x="341" y="414"/>
      <point x="341" y="370" type="curve" smooth="yes"/>
      <point x="341" y="318"/>
      <point x="367" y="286"/>
      <point x="410" y="251" type="curve" smooth="yes"/>
      <point x="440" y="231" type="line" smooth="yes"/>
      <point x="481" y="195"/>
      <point x="519" y="170"/>
      <point x="519" y="148" type="curve" smooth="yes"/>
      <point x="519" y="127"/>
      <point x="511" y="128"/>
      <point x="475" y="128" type="curve" smooth="yes"/>
      <point x="425" y="128"/>
      <point x="393" y="128"/>
      <point x="358" y="128" type="curve"/>
      <point x="345" y="0" type="line"/>
      <point x="421" y="-7"/>
      <point x="469" y="-11"/>
      <point x="526" y="-11" type="curve" smooth="yes"/>
      <point x="688" y="-11"/>
      <point x="732" y="45"/>
      <point x="732" y="141" type="curve" smooth="yes"/>
      <point x="732" y="204"/>
      <point x="712" y="223"/>
      <point x="650" y="277" type="curve" smooth="yes"/>
      <point x="598" y="319" type="line" smooth="yes"/>
      <point x="568" y="345"/>
      <point x="539" y="364"/>
      <point x="539" y="386" type="curve" smooth="yes"/>
      <point x="539" y="407"/>
      <point x="561" y="435"/>
      <point x="581" y="461" type="curve" smooth="yes"/>
      <point x="620" y="513"/>
      <point x="627" y="534"/>
      <point x="627" y="574" type="curve" smooth="yes"/>
      <point x="627" y="693"/>
      <point x="582" y="742"/>
    </contour>
    <contour>
      <point x="192" y="500" type="line"/>
      <point x="90" y="500" type="line"/>
      <point x="8" y="495" type="line"/>
      <point x="8" y="374" type="line"/>
      <point x="192" y="374" type="line"/>
    </contour>
  </outline>
</glyph>
<glyph name="eth" format="2">
  <advance width="604"/>
  <unicode hex="00F0"/>
  <outline>
    <contour>
      <point x="146" y="698" type="curve"/>
      <point x="129" y="568" type="line"/>
      <point x="332" y="583"/>
      <point x="356" y="500"/>
      <point x="356" y="290" type="curve" smooth="yes"/>
      <point x="356" y="155"/>
      <point x="349" y="130"/>
      <point x="299" y="130" type="curve" smooth="yes"/>
      <point x="256" y="130"/>
      <point x="247" y="147"/>
      <point x="247" y="218" type="curve" smooth="yes"/>
      <point x="247" y="305"/>
      <point x="265" y="311"/>
      <point x="302" y="311" type="curve" smooth="yes"/>
      <point x="353" y="311"/>
      <point x="397" y="303"/>
      <point x="423" y="292" type="curve"/>
      <point x="431" y="376" type="line"/>
      <point x="396" y="446"/>
      <point x="304" y="453"/>
      <point x="252" y="453" type="curve" smooth="yes"/>
      <point x="87" y="453"/>
      <point x="27" y="378"/>
      <point x="27" y="214" type="curve" smooth="yes"/>
      <point x="27" y="58"/>
      <point x="112" y="-14"/>
      <point x="297" y="-14" type="curve" smooth="yes"/>
      <point x="489" y="-14"/>
      <point x="576" y="60"/>
      <point x="576" y="291" type="curve" smooth="yes"/>
      <point x="576" y="533"/>
      <point x="447" y="719"/>
    </contour>
    <contour>
      <point x="432" y="734" type="line"/>
      <point x="190" y="524" type="line"/>
      <point x="244" y="463" type="line"/>
      <point x="485" y="673" type="line"/>
    </contour>
  </outline>
</glyph>
<glyph name="Lslash" format="2">
  <advance width="557"/>
  <unicode hex="0141"/>
  <outline>
    <contour>
      <point x="371" y="513" type="line"/>
      <point x="7" y="373" type="line"/>
      <point x="7" y="269" type="line"/>
      <point x="371" y="409" type="line"/>
    </contour>
    <component base="L"/>
  </outline>
</glyph>
<glyph name="OE" format="2">
  <advance width="982"/>
  <unicode hex="0152"/>
  <guideline x="371" y="278" angle="290"/>
  <guideline x="365" y="401" angle="70"/>
  <outline>
    <contour>
      <point x="349" y="704" type="curve" smooth="yes"/>
      <point x="117" y="704"/>
      <point x="33" y="629"/>
      <point x="33" y="345" type="curve" smooth="yes"/>
      <point x="33" y="61"/>
      <point x="117" y="-14"/>
      <point x="349" y="-14" type="curve" smooth="yes"/>
      <point x="423" y="-14"/>
      <point x="483" y="-1"/>
      <point x="537" y="29" type="curve"/>
      <point x="462" y="164" type="line"/>
      <point x="438" y="152"/>
      <point x="404" y="147"/>
      <point x="349" y="147" type="curve" smooth="yes"/>
      <point x="279" y="147"/>
      <point x="262" y="185"/>
      <point x="262" y="345" type="curve" smooth="yes"/>
      <point x="262" y="505"/>
      <point x="279" y="543"/>
      <point x="349" y="543" type="curve" smooth="yes"/>
      <point x="401" y="543"/>
      <point x="435" y="539"/>
      <point x="459" y="530" type="curve"/>
      <point x="543" y="672" type="line"/>
      <point x="487" y="694"/>
      <point x="425" y="704"/>
    </contour>
    <contour>
      <point x="603" y="694" type="curve" smooth="yes"/>
      <point x="512" y="694"/>
      <point x="446" y="630"/>
      <point x="446" y="537" type="curve" smooth="yes"/>
      <point x="446" y="153" type="line" smooth="yes"/>
      <point x="446" y="60"/>
      <point x="511" y="-4"/>
      <point x="602" y="-4" type="curve" smooth="yes"/>
      <point x="719" y="-4"/>
      <point x="857" y="-4"/>
      <point x="954" y="9" type="curve"/>
      <point x="944" y="162" type="line"/>
      <point x="703" y="162" type="line" smooth="yes"/>
      <point x="679" y="162"/>
      <point x="664" y="177"/>
      <point x="664" y="198" type="curve" smooth="yes"/>
      <point x="664" y="492" type="line" smooth="yes"/>
      <point x="664" y="513"/>
      <point x="679" y="528"/>
      <point x="703" y="528" type="curve" smooth="yes"/>
      <point x="944" y="528" type="line"/>
      <point x="954" y="681" type="line"/>
      <point x="857" y="694"/>
      <point x="720" y="694"/>
    </contour>
    <contour>
      <point x="463" y="420" type="line"/>
      <point x="463" y="286" type="line"/>
      <point x="910" y="286" type="line"/>
      <point x="910" y="420" type="line"/>
    </contour>
  </outline>
</glyph>
<glyph name="oe" format="2">
  <advance width="909"/>
  <unicode hex="0153"/>
  <anchor x="473" y="547" name="top"/>
  <outline>
    <contour>
      <point x="301" y="-12" type="curve" smooth="yes"/>
      <point x="496" y="-12"/>
      <point x="570" y="57"/>
      <point x="570" y="249" type="curve" smooth="yes"/>
      <point x="570" y="444"/>
      <point x="496" y="514"/>
      <point x="301" y="514" type="curve" smooth="yes"/>
      <point x="99" y="514"/>
      <point x="26" y="444"/>
      <point x="26" y="249" type="curve" smooth="yes"/>
      <point x="26" y="57"/>
      <point x="99" y="-12"/>
    </contour>
    <contour>
      <point x="301" y="130" type="curve" smooth="yes"/>
      <point x="256" y="130"/>
      <point x="247" y="149"/>
      <point x="247" y="249" type="curve" smooth="yes"/>
      <point x="247" y="352"/>
      <point x="256" y="372"/>
      <point x="304" y="372" type="curve" smooth="yes"/>
      <point x="351" y="372"/>
      <point x="361" y="352"/>
      <point x="361" y="249" type="curve" smooth="yes"/>
      <point x="361" y="149"/>
      <point x="351" y="130"/>
    </contour>
    <contour>
      <point x="634" y="-14" type="curve" smooth="yes"/>
      <point x="723" y="-14"/>
      <point x="804" y="-4"/>
      <point x="874" y="32" type="curve"/>
      <point x="855" y="158" type="line"/>
      <point x="770" y="149"/>
      <point x="694" y="147"/>
      <point x="657" y="147" type="curve" smooth="yes"/>
      <point x="580" y="147"/>
      <point x="569" y="175"/>
      <point x="569" y="267" type="curve" smooth="yes"/>
      <point x="569" y="366"/>
      <point x="580" y="378"/>
      <point x="636" y="377" type="curve" smooth="yes"/>
      <point x="672" y="377"/>
      <point x="687" y="371"/>
      <point x="687" y="339" type="curve" smooth="yes"/>
      <point x="687" y="305"/>
      <point x="680" y="301"/>
      <point x="635" y="301" type="curve" smooth="yes"/>
      <point x="436" y="301" type="line"/>
      <point x="436" y="202" type="line"/>
      <point x="693" y="202" type="line" smooth="yes"/>
      <point x="842" y="202"/>
      <point x="889" y="241"/>
      <point x="888" y="334" type="curve" smooth="yes"/>
      <point x="887" y="451"/>
      <point x="818" y="512"/>
      <point x="633" y="512" type="curve" smooth="yes"/>
      <point x="435" y="512"/>
      <point x="360" y="441"/>
      <point x="360" y="244" type="curve" smooth="yes"/>
      <point x="360" y="74"/>
      <point x="435" y="-14"/>
    </contour>
  </outline>
</glyph>
<glyph name="ringhalfright" format="2">
  <advance width="179"/>
  <unicode hex="02BE"/>
  <anchor x="85" y="552" name="_top"/>
  <outline>
    <contour>
      <point x="64" y="655" type="curve" smooth="yes"/>
      <point x="64" y="630"/>
      <point x="44" y="610"/>
      <point x="20" y="610" type="curve"/>
      <point x="20" y="530" type="line"/>
      <point x="90" y="530"/>
      <point x="149" y="585"/>
      <point x="149" y="655" type="curve" smooth="yes"/>
      <point x="149" y="724"/>
      <point x="90" y="780"/>
      <point x="20" y="780" type="curve"/>
      <point x="20" y="700" type="line"/>
      <point x="44" y="700"/>
      <point x="64" y="679"/>
    </contour>
  </outline>
</glyph>
<glyph name="acutecomb" format="2">
  <unicode hex="0301"/>
  <anchor x="-258" y="526" name="_top"/>
  <outline>
    <contour>
      <point x="-127" y="767" type="line"/>
      <point x="-360" y="617" type="line"/>
      <point x="-303" y="531" type="line"/>
      <point x="-48" y="634" type="line"/>
    </contour>
  </outline>
</glyph>
<glyph name="tildecomb" format="2">
  <unicode hex="0303"/>
  <anchor x="-224" y="539" name="_top"/>
  <outline>
    <contour>
      <point x="-330" y="724" type="curve" smooth="yes"/>
      <point x="-383" y="728"/>
      <point x="-437" y="674"/>
      <point x="-415" y="555" type="curve"/>
      <point x="-328" y="555" type="line"/>
      <point x="-328" y="587"/>
      <point x="-330" y="598"/>
      <point x="-300" y="593" type="curve" smooth="yes"/>
      <point x="-255" y="585"/>
      <point x="-198" y="555"/>
      <point x="-130" y="550" type="curve" smooth="yes"/>
      <point x="-68" y="546"/>
      <point x="-24" y="607"/>
      <point x="-45" y="719" type="curve"/>
      <point x="-132" y="719" type="line"/>
      <point x="-132" y="687"/>
      <point x="-131" y="675"/>
      <point x="-161" y="681" type="curve" smooth="yes"/>
      <point x="-213" y="692"/>
      <point x="-262" y="719"/>
    </contour>
  </outline>
</glyph>
<glyph name="dieresiscomb" format="2">
  <unicode hex="0308"/>
  <anchor x="-222" y="551" name="_top"/>
  <outline>
    <contour>
      <point x="-93" y="720" type="curve" smooth="yes"/>
      <point x="-162" y="720" type="line" smooth="yes"/>
      <point x="-188" y="720"/>
      <point x="-201" y="707"/>
      <point x="-201" y="681" type="curve" smooth="yes"/>
      <point x="-201" y="618" type="line" smooth="yes"/>
      <point x="-201" y="592"/>
      <point x="-188" y="579"/>
      <point x="-162" y="579" type="curve" smooth="yes"/>
      <point x="-93" y="579" type="line" smooth="yes"/>
      <point x="-67" y="579"/>
      <point x="-54" y="592"/>
      <point x="-54" y="618" type="curve" smooth="yes"/>
      <point x="-54" y="681" type="line" smooth="yes"/>
      <point x="-54" y="707"/>
      <point x="-67" y="720"/>
    </contour>
    <contour>
      <point x="-282" y="720" type="curve" smooth="yes"/>
      <point x="-351" y="720" type="line" smooth="yes"/>
      <point x="-377" y="720"/>
      <point x="-390" y="707"/>
      <point x="-390" y="681" type="curve" smooth="yes"/>
      <point x="-390" y="618" type="line" smooth="yes"/>
      <point x="-390" y="592"/>
      <point x="-377" y="579"/>
      <point x="-351" y="579" type="curve" smooth="yes"/>
      <point x="-282" y="579" type="line" smooth="yes"/>
      <point x="-256" y="579"/>
      <point x="-243" y="592"/>
      <point x="-243" y="618" type="curve" smooth="yes"/>
      <point x="-243" y="681" type="line" smooth="yes"/>
      <point x="-243" y="707"/>
      <point x="-256" y="720"/>
    </contour>
  </outline>
</glyph>
<glyph name="brevebelowcomb" format="2">
  <unicode hex="032E"/>
  <anchor x="-209" y="0" name="_bottom"/>
  <outline>
    <contour>
      <point x="-128" y="-39" type="line"/>
      <point x="-128" y="-81"/>
      <point x="-150" y="-98"/>
      <point x="-209" y="-98" type="curve" smooth="yes"/>
      <point x="-269" y="-98"/>
      <point x="-291" y="-81"/>
      <point x="-291" y="-39" type="curve"/>
      <point x="-388" y="-52" type="line"/>
      <point x="-404" y="-141"/>
      <point x="-332" y="-224"/>
      <point x="-209" y="-224" type="curve" smooth="yes"/>
      <point x="-86" y="-224"/>
      <point x="-15" y="-141"/>
      <point x="-31" y="-52" type="curve"/>
    </contour>
  </outline>
</glyph>
<glyph name="mu" format="2">
  <advance width="653"/>
  <unicode hex="03BC"/>
  <outline>
    <contour>
      <point x="253" y="500" type="line"/>
      <point x="45" y="500" type="line"/>
      <point x="45" y="129" type="line"/>
      <point x="45" y="18"/>
      <point x="125" y="-14"/>
      <point x="223" y="-14" type="curve" smooth="yes"/>
      <point x="287" y="-14"/>
      <point x="344" y="31"/>
      <point x="369" y="84" type="curve"/>
      <point x="366" y="314" type="line"/>
      <point x="365" y="207"/>
      <point x="322" y="162"/>
      <point x="290" y="162" type="curve" smooth="yes"/>
      <point x="272" y="162"/>
      <point x="253" y="166"/>
      <point x="253" y="208" type="curve" smooth="yes"/>
    </contour>
    <contour>
      <point x="43" y="500" type="line"/>
      <point x="43" y="-180" type="line"/>
      <point x="226" y="-180" type="line"/>
      <point x="253" y="-65" type="line"/>
      <point x="253" y="500" type="line"/>
    </contour>
    <contour>
      <point x="575" y="500" type="line"/>
      <point x="366" y="500" type="line"/>
      <point x="366" y="100" type="line"/>
      <point x="369" y="84" type="line"/>
      <point x="369" y="81" type="line" smooth="yes"/>
      <point x="369" y="14"/>
      <point x="425" y="-13"/>
      <point x="490" y="-13" type="curve" smooth="yes"/>
      <point x="546" y="-13"/>
      <point x="609" y="1"/>
      <point x="647" y="15" type="curve"/>
      <point x="640" y="117" type="line"/>
      <point x="600" y="117" type="line" smooth="yes"/>
      <point x="579" y="117"/>
      <point x="575" y="130"/>
      <point x="575" y="162" type="curve" smooth="yes"/>
    </contour>
  </outline>
</glyph>
<glyph name="Dje-cy" format="2">
  <advance width="777"/>
  <unicode hex="0402"/>
  <outline>
    <contour>
      <point x="485" y="-16" type="line"/>
      <point x="647" y="-16"/>
      <point x="762" y="36"/>
      <point x="762" y="250" type="curve" smooth="yes"/>
      <point x="762" y="393"/>
      <point x="711" y="454"/>
      <point x="595" y="454" type="curve" smooth="yes"/>
      <point x="521" y="454"/>
      <point x="425" y="429"/>
      <point x="369" y="388" type="curve"/>
      <point x="372" y="257" type="line"/>
      <point x="420" y="283"/>
      <point x="467" y="287"/>
      <point x="489" y="287" type="curve" smooth="yes"/>
      <point x="531" y="287"/>
      <point x="544" y="275"/>
      <point x="544" y="232" type="curve" smooth="yes"/>
      <point x="544" y="178"/>
      <point x="529" y="150"/>
      <point x="465" y="134" type="curve"/>
    </contour>
    <contour>
      <point x="200" y="0" type="line"/>
      <point x="417" y="0" type="line"/>
      <point x="417" y="690" type="line"/>
      <point x="200" y="690" type="line"/>
    </contour>
    <contour>
      <point x="10" y="528" type="line"/>
      <point x="607" y="528" type="line"/>
      <point x="607" y="690" type="line"/>
      <point x="10" y="690" type="line"/>
    </contour>
  </outline>
</glyph>
<glyph name="Tshe-cy" format="2">
  <advance width="810"/>
  <unicode hex="040B"/>
  <outline>
    <contour>
      <point x="589" y="464" type="curve" smooth="yes"/>
      <point x="549" y="464"/>
      <point x="445" y="448"/>
      <point x="378" y="418" type="curve"/>
      <point x="401" y="287" type="line"/>
      <point x="450" y="287"/>
      <point x="481" y="287"/>
      <point x="508" y="287" type="curve" smooth="yes"/>
      <point x="556" y="287"/>
      <point x="564" y="277"/>
      <point x="564" y="237" type="curve" smooth="yes"/>
      <point x="564" y="0" type="line"/>
      <point x="782" y="0" type="line"/>
      <point x="782" y="284" type="line" smooth="yes"/>
      <point x="782" y="408"/>
      <point x="722" y="464"/>
    </contour>
    <contour>
      <point x="417" y="690" type="line"/>
      <point x="200" y="690" type="line"/>
      <point x="200" y="0" type="line"/>
      <point x="417" y="0" type="line"/>
    </contour>
    <contour>
      <point x="607" y="690" type="line"/>
      <point x="10" y="690" type="line"/>
      <point x="10" y="528" type="line"/>
      <point x="607" y="528" type="line"/>
    </contour>
  </outline>
</glyph>
<glyph name="Ie-cy" format="2">
  <advance width="598"/>
  <unicode hex="0415"/>
  <anchor x="325" y="735" name="top"/>
  <outline>
    <contour>
      <point x="211" y="694" type="curve" smooth="yes"/>
      <point x="116" y="694"/>
      <point x="49" y="630"/>
      <point x="49" y="537" type="curve" smooth="yes"/>
      <point x="49" y="153" type="line" smooth="yes"/>
      <point x="49" y="60"/>
      <point x="116" y="-4"/>
      <point x="211" y="-4" type="curve" smooth="yes"/>
      <point x="330" y="-4"/>
      <point x="470" y="-4"/>
      <point x="570" y="9" type="curve"/>
      <point x="560" y="162" type="line"/>
      <point x="307" y="162" type="line" smooth="yes"/>
      <point x="282" y="162"/>
      <point x="266" y="177"/>
      <point x="266" y="198" type="curve" smooth="yes"/>
      <point x="266" y="492" type="line" smooth="yes"/>
      <point x="266" y="513"/>
      <point x="282" y="528"/>
      <point x="307" y="528" type="curve" smooth="yes"/>
      <point x="560" y="528" type="line"/>
      <point x="570" y="681" type="line"/>
      <point x="470" y="694"/>
      <point x="330" y="694"/>
    </contour>
    <contour>
      <point x="67" y="425" type="line"/>
      <point x="67" y="281" type="line"/>
      <point x="524" y="281" type="line"/>
      <point x="524" y="425" type="line"/>
    </contour>
  </outline>
</glyph>
<glyph name="Ii-cy" format="2">
  <advance width="734"/>
  <unicode hex="0418"/>
  <guideline x="458" y="508" angle="270"/>
  <anchor x="376" y="735" name="top"/>
  <outline>
    <contour>
      <point x="677" y="690" type="line"/>
      <point x="471" y="690" type="line"/>
      <point x="303" y="378" type="line" smooth="yes"/>
      <point x="286" y="346"/>
      <point x="271" y="309"/>
      <point x="259" y="272" type="curve"/>
      <point x="252" y="272" type="line"/>
      <point x="258" y="310"/>
      <point x="263" y="350"/>
      <point x="263" y="384" type="curve" smooth="yes"/>
      <point x="263" y="690" type="line"/>
      <point x="57" y="690" type="line"/>
      <point x="57" y="0" type="line"/>
      <point x="264" y="0" type="line"/>
      <point x="433" y="318" type="line" smooth="yes"/>
      <point x="451" y="352"/>
      <point x="464" y="387"/>
      <point x="475" y="424" type="curve"/>
      <point x="482" y="424" type="line"/>
      <point x="476" y="388"/>
      <point x="471" y="353"/>
      <point x="471" y="317" type="curve" smooth="yes"/>
      <point x="471" y="0" type="line"/>
      <point x="677" y="0" type="line"/>
    </contour>
  </outline>
</glyph>
<glyph name="El-cy" format="2">
  <advance width="710"/>
  <unicode hex="041B"/>
  <guideline x="136" y="538" angle="0"/>
  <outline>
    <contour>
      <point x="638" y="690" type="line"/>
      <point x="318" y="690" type="line" smooth="yes"/>
      <point x="205" y="690"/>
      <point x="143" y="631"/>
      <point x="136" y="517" type="curve" smooth="yes"/>
      <point x="127" y="384"/>
      <point x="114" y="280"/>
      <point x="94" y="222" type="curve" smooth="yes"/>
      <point x="78" y="174"/>
      <point x="43" y="168"/>
      <point x="-4" y="163" type="curve"/>
      <point x="11" y="-5" type="line"/>
      <point x="144" y="-29"/>
      <point x="246" y="4"/>
      <point x="293" y="164" type="curve" smooth="yes"/>
      <point x="317" y="244"/>
      <point x="332" y="385"/>
      <point x="341" y="502" type="curve" smooth="yes"/>
      <point x="343" y="532"/>
      <point x="361" y="548"/>
      <point x="394" y="548" type="curve" smooth="yes"/>
      <point x="638" y="548" type="line"/>
    </contour>
    <contour>
      <point x="653" y="690" type="line"/>
      <point x="436" y="690" type="line"/>
      <point x="436" y="0" type="line"/>
      <point x="653" y="0" type="line"/>
    </contour>
  </outline>
</glyph>
<glyph name="Em-cy" format="2">
  <advance width="960"/>
  <unicode hex="041C"/>
  <outline>
    <contour>
      <point x="816" y="690" type="curve" smooth="yes"/>
      <point x="625" y="690" type="line" smooth="yes"/>
      <point x="579" y="690"/>
      <point x="550" y="668"/>
      <point x="542" y="623" type="curve" smooth="yes"/>
      <point x="495" y="349" type="line" smooth="yes"/>
      <point x="490" y="315"/>
      <point x="487" y="280"/>
      <point x="483" y="246" type="curve"/>
      <point x="474" y="246" type="line"/>
      <point x="471" y="280"/>
      <point x="468" y="315"/>
      <point x="463" y="349" type="curve" smooth="yes"/>
      <point x="413" y="623" type="line" smooth="yes"/>
      <point x="405" y="668"/>
      <point x="376" y="690"/>
      <point x="331" y="690" type="curve" smooth="yes"/>
      <point x="144" y="690" type="line" smooth="yes"/>
      <point x="94" y="690"/>
      <point x="70" y="664"/>
      <point x="68" y="615" type="curve" smooth="yes"/>
      <point x="44" y="0" type="line"/>
      <point x="239" y="0" type="line"/>
      <point x="256" y="528" type="line"/>
      <point x="271" y="528" type="line"/>
      <point x="340" y="176" type="line" smooth="yes"/>
      <point x="348" y="132"/>
      <point x="377" y="110"/>
      <point x="423" y="110" type="curve" smooth="yes"/>
      <point x="535" y="110" type="line" smooth="yes"/>
      <point x="581" y="110"/>
      <point x="610" y="132"/>
      <point x="617" y="176" type="curve" smooth="yes"/>
      <point x="685" y="528" type="line"/>
      <point x="700" y="528" type="line"/>
      <point x="721" y="0" type="line"/>
      <point x="916" y="0" type="line"/>
      <point x="892" y="615" type="line" smooth="yes"/>
      <point x="890" y="664"/>
      <point x="866" y="690"/>
    </contour>
  </outline>
</glyph>
<glyph name="Ef-cy" format="2">
  <advance width="877"/>
  <unicode hex="0424"/>
  <outline>
    <contour>
      <point x="438" y="654" type="curve" smooth="yes"/>
      <point x="124" y="654"/>
      <point x="16" y="588"/>
      <point x="16" y="355" type="curve" smooth="yes"/>
      <point x="16" y="130"/>
      <point x="124" y="66"/>
      <point x="438" y="66" type="curve" smooth="yes"/>
      <point x="753" y="66"/>
      <point x="861" y="130"/>
      <point x="861" y="355" type="curve" smooth="yes"/>
      <point x="861" y="588"/>
      <point x="753" y="654"/>
    </contour>
    <contour>
      <point x="438" y="503" type="curve" smooth="yes"/>
      <point x="616" y="503"/>
      <point x="644" y="484"/>
      <point x="644" y="355" type="curve" smooth="yes"/>
      <point x="644" y="235"/>
      <point x="616" y="217"/>
      <point x="438" y="217" type="curve" smooth="yes"/>
      <point x="260" y="217"/>
      <point x="233" y="235"/>
      <point x="233" y="355" type="curve" smooth="yes"/>
      <point x="233" y="484"/>
      <point x="260" y="503"/>
    </contour>
    <contour>
      <point x="547" y="734" type="line"/>
      <point x="330" y="734" type="line"/>
      <point x="330" y="570" type="line"/>
      <point x="340" y="532" type="line"/>
      <point x="340" y="186" type="line"/>
      <point x="330" y="138" type="line"/>
      <point x="330" y="-14" type="line"/>
      <point x="547" y="-14" type="line"/>
      <point x="547" y="138" type="line"/>
      <point x="537" y="186" type="line"/>
      <point x="537" y="532" type="line"/>
      <point x="547" y="570" type="line"/>
    </contour>
  </outline>
</glyph>
<glyph name="Ha-cy" format="2">
  <advance width="677"/>
  <unicode hex="0425"/>
  <outline>
    <contour>
      <point x="668" y="690" type="line"/>
      <point x="454" y="690" type="line"/>
      <point x="311" y="352" type="line"/>
      <point x="467" y="0" type="line"/>
      <point x="682" y="0" type="line"/>
      <point x="511" y="352" type="line"/>
    </contour>
    <contour>
      <point x="223" y="690" type="line"/>
      <point x="9" y="690" type="line"/>
      <point x="166" y="352" type="line"/>
      <point x="-5" y="0" type="line"/>
      <point x="210" y="0" type="line"/>
      <point x="366" y="352" type="line"/>
    </contour>
    <contour>
      <point x="434" y="414" type="line"/>
      <point x="226" y="414" type="line"/>
      <point x="226" y="294" type="line"/>
      <point x="434" y="294" type="line"/>
    </contour>
  </outline>
</glyph>
<glyph name="ve-cy" format="2">
  <advance width="593"/>
  <unicode hex="0432"/>
  <outline>
    <contour>
      <point x="322" y="506" type="curve" smooth="yes"/>
      <point x="201" y="506"/>
      <point x="127" y="505"/>
      <point x="46" y="500" type="curve"/>
      <point x="60" y="376" type="line"/>
      <point x="132" y="381"/>
      <point x="196" y="378"/>
      <point x="312" y="378" type="curve" smooth="yes"/>
      <point x="348" y="378"/>
      <point x="358" y="371"/>
      <point x="358" y="343" type="curve" smooth="yes"/>
      <point x="358" y="316"/>
      <point x="349" y="308"/>
      <point x="314" y="308" type="curve" smooth="yes"/>
      <point x="59" y="308" type="line"/>
      <point x="59" y="207" type="line"/>
      <point x="314" y="207" type="line" smooth="yes"/>
      <point x="352" y="207"/>
      <point x="364" y="199"/>
      <point x="364" y="166" type="curve" smooth="yes"/>
      <point x="364" y="130"/>
      <point x="352" y="122"/>
      <point x="315" y="122" type="curve" smooth="yes"/>
      <point x="190" y="122"/>
      <point x="92" y="123"/>
      <point x="60" y="124" type="curve"/>
      <point x="46" y="-3" type="line"/>
      <point x="136" y="-8"/>
      <point x="216" y="-9"/>
      <point x="352" y="-9" type="curve" smooth="yes"/>
      <point x="503" y="-9"/>
      <point x="572" y="19"/>
      <point x="572" y="124" type="curve" smooth="yes"/>
      <point x="572" y="203"/>
      <point x="537" y="249"/>
      <point x="441" y="255" type="curve"/>
      <point x="441" y="260" type="line"/>
      <point x="521" y="266"/>
      <point x="552" y="302"/>
      <point x="552" y="373" type="curve" smooth="yes"/>
      <point x="552" y="478"/>
      <point x="493" y="506"/>
    </contour>
    <contour>
      <point x="243" y="500" type="line"/>
      <point x="46" y="500" type="line"/>
      <point x="46" y="-3" type="line"/>
      <point x="243" y="-3" type="line"/>
    </contour>
  </outline>
</glyph>
<glyph name="o-cy" format="2">
  <advance width="611"/>
  <unicode hex="043E"/>
  <anchor x="309" y="547" name="top"/>
  <outline>
    <contour>
      <point x="306" y="514" type="curve" smooth="yes"/>
      <point x="101" y="514"/>
      <point x="26" y="444"/>
      <point x="26" y="249" type="curve" smooth="yes"/>
      <point x="26" y="57"/>
      <point x="101" y="-12"/>
      <point x="306" y="-12" type="curve" smooth="yes"/>
      <point x="510" y="-12"/>
      <point x="585" y="57"/>
      <point x="585" y="249" type="curve" smooth="yes"/>
      <point x="585" y="444"/>
      <point x="510" y="514"/>
    </contour>
    <contour>
      <point x="306" y="372" type="curve" smooth="yes"/>
      <point x="354" y="372"/>
      <point x="365" y="352"/>
      <point x="365" y="249" type="curve" smooth="yes"/>
      <point x="365" y="149"/>
      <point x="354" y="130"/>
      <point x="306" y="130" type="curve" smooth="yes"/>
      <point x="257" y="130"/>
      <point x="246" y="149"/>
      <point x="246" y="249" type="curve" smooth="yes"/>
      <point x="246" y="352"/>
      <point x="257" y="372"/>
    </contour>
  </outline>
</glyph>
<glyph name="ef-cy" format="2">
  <advance width="780"/>
  <unicode hex="0444"/>
  <outline>
    <contour>
      <point x="390" y="514" type="curve" smooth="yes"/>
      <point x="124" y="514"/>
      <point x="25" y="444"/>
      <point x="25" y="249" type="curve" smooth="yes"/>
      <point x="25" y="57"/>
      <point x="124" y="-12"/>
      <point x="390" y="-12" type="curve" smooth="yes"/>
      <point x="655" y="-12"/>
      <point x="754" y="57"/>
      <point x="754" y="249" type="curve" smooth="yes"/>
      <point x="754" y="444"/>
      <point x="655" y="514"/>
    </contour>
    <contour>
      <point x="390" y="382" type="curve" smooth="yes"/>
      <point x="525" y="382"/>
      <point x="556" y="360"/>
      <point x="556" y="249" type="curve" smooth="yes"/>
      <point x="556" y="141"/>
      <point x="525" y="120"/>
      <point x="390" y="120" type="curve" smooth="yes"/>
      <point x="254" y="120"/>
      <point x="223" y="141"/>
      <point x="223" y="249" type="curve" smooth="yes"/>
      <point x="223" y="360"/>
      <point x="254" y="382"/>
    </contour>
    <contour>
      <point x="483" y="700" type="line"/>
      <point x="296" y="700" type="line"/>
      <point x="296" y="483" type="line"/>
      <point x="306" y="444" type="line"/>
      <point x="306" y="83" type="line"/>
      <point x="296" y="32" type="line"/>
      <point x="296" y="-180" type="line"/>
      <point x="483" y="-180" type="line"/>
      <point x="483" y="32" type="line"/>
      <point x="473" y="84" type="line"/>
      <point x="473" y="445" type="line"/>
      <point x="483" y="483" type="line"/>
    </contour>
  </outline>
</glyph>
<glyph name="ha-cy" format="2">
  <advance width="606"/>
  <unicode hex="0445"/>
  <outline>
    <contour>
      <point x="598" y="500" type="line"/>
      <point x="391" y="500" type="line"/>
      <point x="268" y="255" type="line"/>
      <point x="401" y="0" type="line"/>
      <point x="609" y="0" type="line"/>
      <point x="464" y="255" type="line"/>
    </contour>
    <contour>
      <point x="215" y="500" type="line"/>
      <point x="8" y="500" type="line"/>
      <point x="142" y="255" type="line"/>
      <point x="-3" y="0" type="line"/>
      <point x="205" y="0" type="line"/>
      <point x="338" y="255" type="line"/>
    </contour>
    <contour>
      <point x="407" y="316" type="line"/>
      <point x="201" y="316" type="line"/>
      <point x="201" y="198" type="line"/>
      <point x="407" y="198" type="line"/>
    </contour>
  </outline>
</glyph>
<glyph name="sha-cy" format="2">
  <advance width="870"/>
  <unicode hex="0448"/>
  <outline>
    <contour>
      <point x="248" y="500" type="line"/>
      <point x="46" y="500" type="line"/>
      <point x="46" y="0" type="line"/>
      <point x="248" y="0" type="line"/>
    </contour>
    <contour>
      <point x="667" y="136" type="line"/>
      <point x="240" y="136" type="line"/>
      <point x="240" y="0" type="line"/>
      <point x="667" y="0" type="line"/>
    </contour>
    <contour>
      <point x="527" y="500" type="line"/>
      <point x="343" y="500" type="line"/>
      <point x="343" y="0" type="line"/>
      <point x="527" y="0" type="line"/>
    </contour>
    <contour>
      <point x="824" y="500" type="line"/>
      <point x="622" y="500" type="line"/>
      <point x="622" y="0" type="line"/>
      <point x="824" y="0" type="line"/>
    </contour>
  </outline>
</glyph>
<glyph name="ia-cy" format="2">
  <advance width="587"/>
  <unicode hex="044F"/>
  <outline>
    <contour>
      <point x="279" y="514" type="curve" smooth="yes"/>
      <point x="82" y="514"/>
      <point x="36" y="484"/>
      <point x="36" y="349" type="curve" smooth="yes"/>
      <point x="36" y="296"/>
      <point x="59" y="234"/>
      <point x="145" y="216" type="curve"/>
      <point x="145" y="211" type="line"/>
      <point x="116" y="209"/>
      <point x="63" y="203"/>
      <point x="49" y="160" type="curve" smooth="yes"/>
      <point x="12" y="0" type="line"/>
      <point x="226" y="0" type="line"/>
      <point x="255" y="134" type="line" smooth="yes"/>
      <point x="258" y="154"/>
      <point x="265" y="157"/>
      <point x="293" y="157" type="curve" smooth="yes"/>
      <point x="448" y="157"/>
      <point x="490" y="157"/>
      <point x="532" y="160" type="curve"/>
      <point x="529" y="280" type="line"/>
      <point x="283" y="280" type="line" smooth="yes"/>
      <point x="248" y="280"/>
      <point x="240" y="289"/>
      <point x="240" y="336" type="curve" smooth="yes"/>
      <point x="240" y="363"/>
      <point x="248" y="370"/>
      <point x="283" y="370" type="curve" smooth="yes"/>
      <point x="430" y="370"/>
      <point x="519" y="370"/>
      <point x="528" y="366" type="curve"/>
      <point x="541" y="506" type="line"/>
      <point x="479" y="513"/>
      <point x="423" y="514"/>
    </contour>
    <contour>
      <point x="541" y="506" type="line"/>
      <point x="337" y="506" type="line"/>
      <point x="337" y="0" type="line"/>
      <point x="541" y="0" type="line"/>
    </contour>
  </outline>
</glyph>
<glyph name="e-cy" format="2">
  <advance width="564"/>
  <unicode hex="0454"/>
  <outline>
    <contour>
      <point x="323" y="514" type="curve" smooth="yes"/>
      <point x="105" y="514"/>
      <point x="26" y="447"/>
      <point x="26" y="248" type="curve" smooth="yes"/>
      <point x="26" y="54"/>
      <point x="105" y="-14"/>
      <point x="323" y="-14" type="curve" smooth="yes"/>
      <point x="401" y="-14"/>
      <point x="480" y="-6"/>
      <point x="543" y="19" type="curve"/>
      <point x="528" y="148" type="line"/>
      <point x="466" y="145"/>
      <point x="412" y="144"/>
      <point x="323" y="144" type="curve" smooth="yes"/>
      <point x="255" y="144"/>
      <point x="237" y="147"/>
      <point x="237" y="248" type="curve" smooth="yes"/>
      <point x="237" y="347"/>
      <point x="255" y="357"/>
      <point x="323" y="356" type="curve" smooth="yes"/>
      <point x="406" y="356"/>
      <point x="457" y="356"/>
      <point x="523" y="357" type="curve"/>
      <point x="539" y="483" type="line"/>
      <point x="473" y="508"/>
      <point x="404" y="514"/>
    </contour>
    <contour>
      <point x="66" y="308" type="line"/>
      <point x="66" y="198" type="line"/>
      <point x="491" y="198" type="line"/>
      <point x="491" y="308" type="line"/>
    </contour>
  </outline>
</glyph>
<glyph name="dze-cy" format="2">
  <advance width="553"/>
  <unicode hex="0455"/>
  <outline>
    <contour>
      <point x="256" y="514" type="curve" smooth="yes"/>
      <point x="80" y="514"/>
      <point x="24" y="459"/>
      <point x="24" y="368" type="curve" smooth="yes"/>
      <point x="24" y="290"/>
      <point x="45" y="236"/>
      <point x="155" y="204" type="curve" smooth="yes"/>
      <point x="265" y="174" type="line" smooth="yes"/>
      <point x="317" y="159"/>
      <point x="330" y="159"/>
      <point x="330" y="147" type="curve" smooth="yes"/>
      <point x="330" y="132"/>
      <point x="317" y="132"/>
      <point x="222" y="132" type="curve" smooth="yes"/>
      <point x="151" y="132"/>
      <point x="70" y="132"/>
      <point x="44" y="132" type="curve"/>
      <point x="31" y="10" type="line"/>
      <point x="141" y="-9"/>
      <point x="243" y="-11"/>
      <point x="291" y="-11" type="curve" smooth="yes"/>
      <point x="465" y="-11"/>
      <point x="533" y="27"/>
      <point x="533" y="154" type="curve" smooth="yes"/>
      <point x="533" y="241"/>
      <point x="490" y="280"/>
      <point x="401" y="305" type="curve" smooth="yes"/>
      <point x="286" y="334" type="line" smooth="yes"/>
      <point x="238" y="347"/>
      <point x="227" y="347"/>
      <point x="227" y="358" type="curve" smooth="yes"/>
      <point x="227" y="371"/>
      <point x="235" y="370"/>
      <point x="302" y="370" type="curve" smooth="yes"/>
      <point x="363" y="370"/>
      <point x="432" y="370"/>
      <point x="499" y="370" type="curve"/>
      <point x="512" y="492" type="line"/>
      <point x="449" y="505"/>
      <point x="336" y="514"/>
    </contour>
  </outline>
</glyph>
<glyph name="yat-cy" format="2">
  <advance width="583"/>
  <unicode hex="0463"/>
  <outline>
    <contour>
      <point x="306" y="343" type="curve" smooth="yes"/>
      <point x="84" y="343" type="line"/>
      <point x="84" y="227" type="line"/>
      <point x="306" y="227" type="line" smooth="yes"/>
      <point x="349" y="227"/>
      <point x="357" y="220"/>
      <point x="357" y="177" type="curve" smooth="yes"/>
      <point x="357" y="136"/>
      <point x="349" y="128"/>
      <point x="306" y="128" type="curve" smooth="yes"/>
      <point x="199" y="128"/>
      <point x="112" y="129"/>
      <point x="85" y="131" type="curve"/>
      <point x="72" y="0" type="line"/>
      <point x="151" y="-5"/>
      <point x="220" y="-6"/>
      <point x="342" y="-6" type="curve" smooth="yes"/>
      <point x="497" y="-6"/>
      <point x="567" y="33"/>
      <point x="567" y="169" type="curve" smooth="yes"/>
      <point x="567" y="306"/>
      <point x="504" y="343"/>
    </contour>
    <contour>
      <point x="267" y="690" type="line"/>
      <point x="66" y="690" type="line"/>
      <point x="66" y="0" type="line"/>
      <point x="267" y="0" type="line"/>
    </contour>
    <contour>
      <point x="-10" y="447" type="line"/>
      <point x="431" y="447" type="line"/>
      <point x="431" y="547" type="line"/>
      <point x="-10" y="547" type="line"/>
    </contour>
  </outline>
</glyph>
<glyph name="izhitsa-cy" format="2">
  <advance width="581"/>
  <unicode hex="0475"/>
  <outline>
    <contour>
      <point x="193" y="0" type="curve" smooth="yes"/>
      <point x="357" y="0" type="line" smooth="yes"/>
      <point x="389" y="0"/>
      <point x="415" y="20"/>
      <point x="422" y="50" type="curve" smooth="yes"/>
      <point x="484" y="307" type="line" smooth="yes"/>
      <point x="493" y="346"/>
      <point x="513" y="358"/>
      <point x="547" y="358" type="curve" smooth="yes"/>
      <point x="555" y="358"/>
      <point x="571" y="357"/>
      <point x="581" y="355" type="curve"/>
      <point x="581" y="498" type="line"/>
      <point x="541" y="506"/>
      <point x="498" y="507"/>
      <point x="472" y="507" type="curve" smooth="yes"/>
      <point x="356" y="507"/>
      <point x="331" y="419"/>
      <point x="322" y="363" type="curve" smooth="yes"/>
      <point x="294" y="198" type="line" smooth="yes"/>
      <point x="291" y="181"/>
      <point x="287" y="159"/>
      <point x="284" y="141" type="curve"/>
      <point x="265" y="141" type="line"/>
      <point x="262" y="159"/>
      <point x="259" y="181"/>
      <point x="255" y="199" type="curve" smooth="yes"/>
      <point x="191" y="497" type="line"/>
      <point x="-3" y="497" type="line"/>
      <point x="128" y="50" type="line" smooth="yes"/>
      <point x="136" y="20"/>
      <point x="160" y="0"/>
    </contour>
  </outline>
</glyph>
<glyph name="Semisoftsign-cy" format="2">
  <advance width="657"/>
  <unicode hex="048C"/>
  <outline>
    <contour>
      <point x="-20" y="507" type="line"/>
      <point x="521" y="507" type="line"/>
      <point x="521" y="627" type="line"/>
      <point x="-20" y="627" type="line"/>
    </contour>
    <component base="Softsign-cy" xOffset="45"/>
  </outline>
</glyph>
<glyph name="ertick-cy" format="2">
  <advance width="620"/>
  <unicode hex="048F"/>
  <outline>
    <contour>
      <point x="285" y="197" type="line"/>
      <point x="502" y="-111" type="line"/>
      <point x="563" y="-68" type="line"/>
      <point x="346" y="240" type="line"/>
    </contour>
    <contour>
      <point x="412" y="512" type="curve" smooth="yes"/>
      <point x="325" y="512"/>
      <point x="247" y="470"/>
      <point x="221" y="421" type="curve"/>
      <point x="250" y="342" type="line"/>
      <point x="271" y="352"/>
      <point x="287" y="361"/>
      <point x="322" y="361" type="curve" smooth="yes"/>
      <point x="374" y="361"/>
      <point x="396" y="350"/>
      <point x="396" y="242" type="curve" smooth="yes"/>
      <point x="396" y="126"/>
      <point x="374" y="113"/>
      <point x="319" y="113" type="curve" smooth="yes"/>
      <point x="278" y="113"/>
      <point x="258" y="125"/>
      <point x="231" y="134" type="curve"/>
      <point x="217" y="62" type="line"/>
      <point x="257" y="6"/>
      <point x="327" y="-14"/>
      <point x="403" y="-14" type="curve" smooth="yes"/>
      <point x="527" y="-14"/>
      <point x="592" y="38"/>
      <point x="592" y="244" type="curve" smooth="yes"/>
      <point x="592" y="414"/>
      <point x="542" y="512"/>
    </contour>
    <contour>
      <point x="211" y="500" type="line"/>
      <point x="43" y="500" type="line"/>
      <point x="43" y="-180" type="line"/>
      <point x="253" y="-180" type="line"/>
      <point x="253" y="-81" type="line" smooth="yes"/>
      <point x="254" y="-34"/>
      <point x="251" y="19"/>
      <point x="247" y="62" type="curve"/>
      <point x="253" y="74" type="line"/>
      <point x="253" y="405" type="line"/>
      <point x="231" y="421" type="line"/>
    </contour>
  </outline>
</glyph>
<glyph name="Zhedescender-cy" format="2">
  <advance width="987"/>
  <unicode hex="0496"/>
  <outline>
    <contour>
      <point x="992" y="142" type="line"/>
      <point x="744" y="142" type="line"/>
      <point x="744" y="0" type="line"/>
      <point x="992" y="0" type="line"/>
    </contour>
    <contour>
      <point x="992" y="7" type="line"/>
      <point x="819" y="7" type="line"/>
      <point x="835" y="-151" type="line"/>
      <point x="992" y="-151" type="line"/>
    </contour>
    <component base="Zhe-cy"/>
  </outline>
</glyph>
<glyph name="Kadescender-cy" format="2">
  <advance width="682"/>
  <unicode hex="049A"/>
  <outline>
    <contour>
      <point x="696" y="142" type="line"/>
      <point x="448" y="142" type="line"/>
      <point x="448" y="0" type="line"/>
      <point x="696" y="0" type="line"/>
    </contour>
    <contour>
      <point x="696" y="7" type="line"/>
      <point x="523" y="7" type="line"/>
      <point x="539" y="-151" type="line"/>
      <point x="696" y="-151" type="line"/>
    </contour>
    <component base="Ka-cy" xOffset="-4"/>
  </outline>
</glyph>
<glyph name="kadescender-cy" format="2">
  <advance width="619"/>
  <unicode hex="049B"/>
  <outline>
    <contour>
      <point x="622" y="136" type="line"/>
      <point x="387" y="136" type="line"/>
      <point x="387" y="0" type="line"/>
      <point x="622" y="0" type="line"/>
    </contour>
    <contour>
      <point x="622" y="5" type="line"/>
      <point x="468" y="5" type="line"/>
      <point x="483" y="-136" type="line"/>
      <point x="622" y="-136" type="line"/>
    </contour>
    <component base="ka-cy"/>
  </outline>
</glyph>
<glyph name="Endescender-cy" format="2">
  <advance width="733"/>
  <unicode hex="04A2"/>
  <outline>
    <contour>
      <point x="738" y="142" type="line"/>
      <point x="445" y="142" type="line"/>
      <point x="445" y="0" type="line"/>
      <point x="738" y="0" type="line"/>
    </contour>
    <contour>
      <point x="738" y="7" type="line"/>
      <point x="565" y="7" type="line"/>
      <point x="581" y="-151" type="line"/>
      <point x="738" y="-151" type="line"/>
    </contour>
    <component base="En-cy" xOffset="-4"/>
  </outline>
</glyph>
<glyph name="endescender-cy" format="2">
  <advance width="662"/>
  <unicode hex="04A3"/>
  <outline>
    <contour>
      <point x="662" y="136" type="line"/>
      <point x="447" y="136" type="line"/>
      <point x="447" y="0" type="line"/>
      <point x="662" y="0" type="line"/>
    </contour>
    <contour>
      <point x="662" y="5" type="line"/>
      <point x="508" y="5" type="line"/>
      <point x="523" y="-136" type="line"/>
      <point x="662" y="-136" type="line"/>
    </contour>
    <component base="en-cy"/>
  </outline>
</glyph>
<glyph name="haabkhasian-cy" format="2">
  <advance width="792"/>
  <unicode hex="04A9"/>
  <outline>
    <contour>
      <point x="291" y="386" type="curve"/>
      <point x="291" y="515" type="line"/>
      <point x="123" y="515"/>
      <point x="26" y="446"/>
      <point x="26" y="263" type="curve" smooth="yes"/>
      <point x="26" y="82"/>
      <point x="114" y="-9"/>
      <point x="311" y="-9" type="curve" smooth="yes"/>
      <point x="586" y="-9"/>
      <point x="740" y="178"/>
      <point x="740" y="339" type="curve" smooth="yes"/>
      <point x="740" y="457"/>
      <point x="650" y="516"/>
      <point x="513" y="516" type="curve" smooth="yes"/>
      <point x="405" y="516"/>
      <point x="324" y="465"/>
      <point x="324" y="339" type="curve" smooth="yes"/>
      <point x="324" y="129"/>
      <point x="474" y="-9"/>
      <point x="670" y="-9" type="curve" smooth="yes"/>
      <point x="722" y="-9"/>
      <point x="771" y="-2"/>
      <point x="802" y="25" type="curve"/>
      <point x="781" y="118" type="line"/>
      <point x="758" y="113"/>
      <point x="717" y="109"/>
      <point x="675" y="109" type="curve" smooth="yes"/>
      <point x="566" y="109"/>
      <point x="502" y="170"/>
      <point x="502" y="328" type="curve" smooth="yes"/>
      <point x="502" y="359"/>
      <point x="511" y="383"/>
      <point x="533" y="383" type="curve" smooth="yes"/>
      <point x="554" y="383"/>
      <point x="561" y="357"/>
      <point x="561" y="328" type="curve" smooth="yes"/>
      <point x="561" y="166"/>
      <point x="489" y="122"/>
      <point x="351" y="122" type="curve" smooth="yes"/>
      <point x="265" y="122"/>
      <point x="226" y="167"/>
      <point x="226" y="263" type="curve" smooth="yes"/>
      <point x="226" y="344"/>
      <point x="254" y="386"/>
    </contour>
  </outline>
</glyph>
<glyph name="ustraitstroke-cy" format="2">
  <advance width="663"/>
  <unicode hex="04B1"/>
  <outline>
    <contour>
      <point x="666" y="500" type="line"/>
      <point x="443" y="500" type="line"/>
      <point x="359" y="289" type="line" smooth="yes"/>
      <point x="347" y="259"/>
      <point x="344" y="222"/>
      <point x="338" y="191" type="curve"/>
      <point x="326" y="191" type="line"/>
      <point x="320" y="222"/>
      <point x="317" y="258"/>
      <point x="305" y="288" type="curve" smooth="yes"/>
      <point x="220" y="500" type="line"/>
      <point x="-3" y="500" type="line"/>
      <point x="230" y="20" type="line"/>
      <point x="433" y="20" type="line"/>
    </contour>
    <contour>
      <point x="438" y="143" type="line"/>
      <point x="226" y="143" type="line"/>
      <point x="226" y="-180" type="line"/>
      <point x="438" y="-180" type="line"/>
    </contour>
    <contour>
      <point x="572" y="111" type="line"/>
      <point x="92" y="111" type="line"/>
      <point x="92" y="11" type="line"/>
      <point x="572" y="11" type="line"/>
    </contour>
  </outline>
</glyph>
<glyph name="Hadescender-cy" format="2">
  <advance width="755"/>
  <unicode hex="04B2"/>
  <outline>
    <contour>
      <point x="668" y="690" type="line"/>
      <point x="454" y="690" type="line"/>
      <point x="311" y="352" type="line"/>
      <point x="467" y="0" type="line"/>
      <point x="682" y="0" type="line"/>
      <point x="511" y="352" type="line"/>
    </contour>
    <contour>
      <point x="223" y="690" type="line"/>
      <point x="9" y="690" type="line"/>
      <point x="166" y="352" type="line"/>
      <point x="-5" y="0" type="line"/>
      <point x="210" y="0" type="line"/>
      <point x="366" y="352" type="line"/>
    </contour>
    <contour>
      <point x="434" y="414" type="line"/>
      <point x="226" y="414" type="line"/>
      <point x="226" y="294" type="line"/>
      <point x="434" y="294" type="line"/>
    </contour>
    <contour>
      <point x="759" y="142" type="line"/>
      <point x="466" y="142" type="line"/>
      <point x="466" y="0" type="line"/>
      <point x="759" y="0" type="line"/>
    </contour>
    <contour>
      <point x="759" y="7" type="line"/>
      <point x="586" y="7" type="line"/>
      <point x="602" y="-151" type="line"/>
      <point x="759" y="-151" type="line"/>
    </contour>
  </outline>
</glyph>
<glyph name="Tetse-cy" format="2">
  <advance width="853"/>
  <unicode hex="04B4"/>
  <outline>
    <contour>
      <point x="564" y="0" type="line"/>
      <point x="781" y="0" type="line"/>
      <point x="781" y="690" type="line"/>
      <point x="564" y="690" type="line"/>
    </contour>
    <contour>
      <point x="168" y="0" type="line"/>
      <point x="385" y="0" type="line"/>
      <point x="385" y="690" type="line"/>
      <point x="168" y="690" type="line"/>
    </contour>
    <contour>
      <point x="377" y="0" type="line"/>
      <point x="857" y="0" type="line"/>
      <point x="857" y="142" type="line"/>
      <point x="377" y="142" type="line"/>
    </contour>
    <contour>
      <point x="700" y="-151" type="line"/>
      <point x="857" y="-151" type="line"/>
      <point x="857" y="7" type="line"/>
      <point x="684" y="7" type="line"/>
    </contour>
    <contour>
      <point x="10" y="528" type="line"/>
      <point x="512" y="528" type="line"/>
      <point x="512" y="690" type="line"/>
      <point x="10" y="690" type="line"/>
    </contour>
  </outline>
</glyph>
<glyph name="Chedescender-cy" format="2">
  <advance width="704"/>
  <unicode hex="04B6"/>
  <outline>
    <contour>
      <point x="230" y="216" type="curve" smooth="yes"/>
      <point x="291" y="216"/>
      <point x="384" y="240"/>
      <point x="455" y="281" type="curve"/>
      <point x="432" y="412" type="line"/>
      <point x="376" y="393"/>
      <point x="341" y="393"/>
      <point x="311" y="393" type="curve" smooth="yes"/>
      <point x="262" y="393"/>
      <point x="252" y="410"/>
      <point x="252" y="443" type="curve" smooth="yes"/>
      <point x="252" y="690" type="line"/>
      <point x="35" y="690" type="line"/>
      <point x="35" y="396" type="line" smooth="yes"/>
      <point x="35" y="272"/>
      <point x="95" y="216"/>
    </contour>
    <contour>
      <point x="537" y="-151" type="line"/>
      <point x="694" y="-151" type="line"/>
      <point x="709" y="7" type="line"/>
      <point x="537" y="7" type="line"/>
    </contour>
    <contour>
      <point x="475" y="0" type="line"/>
      <point x="709" y="0" type="line"/>
      <point x="709" y="142" type="line"/>
      <point x="475" y="142" type="line"/>
    </contour>
    <contour>
      <point x="416" y="0" type="line"/>
      <point x="633" y="0" type="line"/>
      <point x="633" y="690" type="line"/>
      <point x="416" y="690" type="line"/>
    </contour>
  </outline>
</glyph>
<glyph name="Cheabkhasian-cy" format="2">
  <advance width="772"/>
  <unicode hex="04BC"/>
  <outline>
    <contour>
      <point x="189" y="283" type="curve" smooth="yes"/>
      <point x="510" y="283" type="line" smooth="yes"/>
      <point x="683" y="283"/>
      <point x="755" y="331"/>
      <point x="755" y="491" type="curve" smooth="yes"/>
      <point x="755" y="648"/>
      <point x="681" y="703"/>
      <point x="492" y="703" type="curve" smooth="yes"/>
      <point x="276" y="703"/>
      <point x="177" y="631"/>
      <point x="177" y="339" type="curve" smooth="yes"/>
      <point x="177" y="94"/>
      <point x="247" y="-12"/>
      <point x="497" y="-12" type="curve" smooth="yes"/>
      <point x="603" y="-12"/>
      <point x="690" y="7"/>
      <point x="733" y="23" type="curve"/>
      <point x="714" y="182" type="line"/>
      <point x="645" y="173"/>
      <point x="575" y="172"/>
      <point x="536" y="172" type="curve" smooth="yes"/>
      <point x="426" y="172"/>
      <point x="405" y="180"/>
      <point x="405" y="344" type="curve" smooth="yes"/>
      <point x="405" y="495"/>
      <point x="418" y="531"/>
      <point x="486" y="531" type="curve" smooth="yes"/>
      <point x="538" y="531"/>
      <point x="555" y="512"/>
      <point x="555" y="473" type="curve" smooth="yes"/>
      <point x="555" y="430"/>
      <point x="535" y="413"/>
      <point x="482" y="413" type="curve" smooth="yes"/>
      <point x="187" y="413" type="line" smooth="yes"/>
      <point x="129" y="413"/>
      <point x="104" y="432"/>
      <point x="118" y="495" type="curve"/>
      <point x="-30" y="495" type="line"/>
      <point x="-53" y="351"/>
      <point x="10" y="283"/>
    </contour>
  </outline>
</glyph>
<glyph name="Kahook-cy" format="2">
  <advance width="671"/>
  <unicode hex="04C3"/>
  <outline>
    <contour>
      <point x="344" y="-182" type="line"/>
      <point x="546" y="-198"/>
      <point x="661" y="-104"/>
      <point x="661" y="89" type="curve" smooth="yes"/>
      <point x="661" y="244"/>
      <point x="592" y="347"/>
      <point x="437" y="357" type="curve"/>
      <point x="437" y="363" type="line"/>
      <point x="579" y="383"/>
      <point x="573" y="424"/>
      <point x="652" y="690" type="curve"/>
      <point x="432" y="690" type="line"/>
      <point x="379" y="471"/>
      <point x="373" y="428"/>
      <point x="282" y="428" type="curve" smooth="yes"/>
      <point x="218" y="428" type="line"/>
      <point x="218" y="288" type="line"/>
      <point x="285" y="288" type="line" smooth="yes"/>
      <point x="387" y="288"/>
      <point x="445" y="252"/>
      <point x="445" y="95" type="curve" smooth="yes"/>
      <point x="445" y="23"/>
      <point x="442" y="-55"/>
      <point x="344" y="-55" type="curve"/>
    </contour>
    <contour>
      <point x="53" y="0" type="line"/>
      <point x="270" y="0" type="line"/>
      <point x="270" y="225" type="line" smooth="yes"/>
      <point x="270" y="265"/>
      <point x="255" y="319"/>
      <point x="239" y="362" type="curve"/>
      <point x="260" y="408"/>
      <point x="270" y="465"/>
      <point x="270" y="516" type="curve" smooth="yes"/>
      <point x="270" y="690" type="line"/>
      <point x="53" y="690" type="line"/>
    </contour>
  </outline>
</glyph>
<glyph name="chekhakassian-cy" format="2">
  <advance width="605"/>
  <unicode hex="04CC"/>
  <outline>
    <contour>
      <point x="270" y="106" type="line"/>
      <point x="270" y="0" type="line"/>
      <point x="502" y="0" type="line"/>
      <point x="502" y="106" type="line"/>
    </contour>
    <contour>
      <point x="270" y="5" type="line"/>
      <point x="270" y="-136" type="line"/>
      <point x="409" y="-136" type="line"/>
      <point x="424" y="5" type="line"/>
    </contour>
    <component base="che-cy"/>
  </outline>
</glyph>
<glyph name="dzeabkhasian-cy" format="2">
  <advance width="510"/>
  <unicode hex="04E1"/>
  <outline>
    <contour>
      <point x="255" y="-204" type="curve" smooth="yes"/>
      <point x="429" y="-204"/>
      <point x="494" y="-143"/>
      <point x="494" y="11" type="curve" smooth="yes"/>
      <point x="494" y="166"/>
      <point x="417" y="202"/>
      <point x="302" y="202" type="curve" smooth="yes"/>
      <point x="206" y="202" type="line"/>
      <point x="205" y="150" type="line"/>
      <point x="462" y="365" type="line"/>
      <point x="462" y="480" type="line" smooth="yes"/>
      <point x="462" y="491"/>
      <point x="453" y="500"/>
      <point x="442" y="500" type="curve" smooth="yes"/>
      <point x="28" y="500" type="line"/>
      <point x="28" y="349" type="line"/>
      <point x="389" y="349" type="line"/>
      <point x="290" y="394" type="line"/>
      <point x="84" y="201" type="line"/>
      <point x="84" y="93" type="line"/>
      <point x="217" y="93" type="line" smooth="yes"/>
      <point x="270" y="93"/>
      <point x="281" y="79"/>
      <point x="281" y="34" type="curve" smooth="yes"/>
      <point x="281" y="-31"/>
      <point x="263" y="-38"/>
      <point x="190" y="-38" type="curve" smooth="yes"/>
      <point x="137" y="-38"/>
      <point x="106" y="-37"/>
      <point x="14" y="-33" type="curve"/>
      <point x="9" y="-185" type="line"/>
      <point x="86" y="-196"/>
      <point x="172" y="-204"/>
    </contour>
  </outline>
</glyph>
<glyph name="gedescender-cy" format="2">
  <advance width="473"/>
  <unicode hex="04F7"/>
  <outline>
    <contour>
      <point x="331" y="136" type="line"/>
      <point x="116" y="136" type="line"/>
      <point x="116" y="0" type="line"/>
      <point x="331" y="0" type="line"/>
    </contour>
    <contour>
      <point x="331" y="5" type="line"/>
      <point x="177" y="5" type="line"/>
      <point x="192" y="-136" type="line"/>
      <point x="331" y="-136" type="line"/>
    </contour>
    <component base="ge-cy"/>
  </outline>
</glyph>
<glyph name="Hastroke-cy" format="2">
  <advance width="661"/>
  <unicode hex="04FE"/>
  <outline>
    <contour>
      <point x="459" y="0" type="line"/>
      <point x="674" y="0" type="line"/>
      <point x="503" y="352" type="line"/>
      <point x="660" y="690" type="line"/>
      <point x="446" y="690" type="line"/>
      <point x="303" y="352" type="line"/>
    </contour>
    <contour>
      <point x="-13" y="0" type="line"/>
      <point x="202" y="0" type="line"/>
      <point x="358" y="352" type="line"/>
      <point x="215" y="690" type="line"/>
      <point x="1" y="690" type="line"/>
      <point x="158" y="352" type="line"/>
    </contour>
    <contour>
      <point x="218" y="294" type="line"/>
      <point x="426" y="294" type="line"/>
      <point x="426" y="414" type="line"/>
      <point x="218" y="414" type="line"/>
    </contour>
    <contour>
      <point x="48" y="292" type="line"/>
      <point x="613" y="292" type="line"/>
      <point x="613" y="412" type="line"/>
      <point x="48" y="412" type="line"/>
    </contour>
  </outline>
</glyph>
<glyph name="Elhook-cy" format="2">
  <advance width="688"/>
  <unicode hex="0512"/>
  <outline>
    <contour>
      <point x="620" y="690" type="line"/>
      <point x="300" y="690" type="line" smooth="yes"/>
      <point x="187" y="690"/>
      <point x="125" y="631"/>
      <point x="118" y="517" type="curve" smooth="yes"/>
      <point x="109" y="384"/>
      <point x="96" y="280"/>
      <point x="76" y="222" type="curve" smooth="yes"/>
      <point x="60" y="174"/>
      <point x="25" y="168"/>
      <point x="-22" y="163" type="curve"/>
      <point x="-7" y="-5" type="line"/>
      <point x="126" y="-29"/>
      <point x="228" y="4"/>
      <point x="275" y="164" type="curve" smooth="yes"/>
      <point x="299" y="244"/>
      <point x="314" y="385"/>
      <point x="323" y="502" type="curve" smooth="yes"/>
      <point x="325" y="532"/>
      <point x="343" y="548"/>
      <point x="376" y="548" type="curve" smooth="yes"/>
      <point x="620" y="548" type="line"/>
    </contour>
    <contour>
      <point x="418" y="690" type="line"/>
      <point x="418" y="91" type="line" smooth="yes"/>
      <point x="418" y="17"/>
      <point x="396" y="-55"/>
      <point x="303" y="-55" type="curve"/>
      <point x="303" y="-182" type="line"/>
      <point x="456" y="-221"/>
      <point x="635" y="-160"/>
      <point x="635" y="69" type="curve" smooth="yes"/>
      <point x="635" y="690" type="line"/>
    </contour>
  </outline>
</glyph>
<glyph name="Pedescender-cy" format="2">
  <advance width="729"/>
  <unicode hex="0524"/>
  <outline>
    <contour>
      <point x="734" y="142" type="line"/>
      <point x="441" y="142" type="line"/>
      <point x="441" y="0" type="line"/>
      <point x="734" y="0" type="line"/>
    </contour>
    <contour>
      <point x="734" y="7" type="line"/>
      <point x="561" y="7" type="line"/>
      <point x="577" y="-151" type="line"/>
      <point x="734" y="-151" type="line"/>
    </contour>
    <component base="Pe-cy" xOffset="-4"/>
  </outline>
</glyph>
<glyph name="Germandbls" format="2">
  <advance width="727"/>
  <unicode hex="1E9E"/>
  <outline>
    <contour>
      <point x="214" y="694" type="curve" smooth="yes"/>
      <point x="118" y="694"/>
      <point x="50" y="630"/>
      <point x="50" y="537" type="curve" smooth="yes"/>
      <point x="50" y="0" type="line"/>
      <point x="267" y="0" type="line"/>
      <point x="267" y="492" type="line" smooth="yes"/>
      <point x="267" y="513"/>
      <point x="283" y="528"/>
      <point x="310" y="528" type="curve" smooth="yes"/>
      <point x="635" y="528" type="line"/>
      <point x="645" y="680" type="line"/>
      <point x="550" y="694"/>
      <point x="329" y="694"/>
    </contour>
    <contour>
      <point x="344" y="394" type="line"/>
      <point x="344" y="261" type="line"/>
      <point x="436" y="261" type="line" smooth="yes"/>
      <point x="487" y="261"/>
      <point x="505" y="249"/>
      <point x="505" y="199" type="curve" smooth="yes"/>
      <point x="505" y="140"/>
      <point x="485" y="126"/>
      <point x="423" y="126" type="curve" smooth="yes"/>
      <point x="381" y="126"/>
      <point x="361" y="129"/>
      <point x="304" y="135" type="curve"/>
      <point x="298" y="5" type="line"/>
      <point x="354" y="-5"/>
      <point x="416" y="-13"/>
      <point x="472" y="-13" type="curve" smooth="yes"/>
      <point x="646" y="-13"/>
      <point x="716" y="47"/>
      <point x="715" y="206" type="curve" smooth="yes"/>
      <point x="714" y="314"/>
      <point x="672" y="401"/>
      <point x="561" y="401" type="curve"/>
      <point x="522" y="399" type="line"/>
      <point x="522" y="402" type="line"/>
      <point x="540" y="411"/>
      <point x="557" y="427"/>
      <point x="569" y="443" type="curve" smooth="yes"/>
      <point x="635" y="528" type="line"/>
      <point x="437" y="528" type="line"/>
    </contour>
  </outline>
</glyph>
<glyph name="daggerdbl" format="2">
  <advance width="547"/>
  <unicode hex="2021"/>
  <outline>
    <contour>
      <point x="336" y="690" type="curve" smooth="yes"/>
      <point x="210" y="690" type="line" smooth="yes"/>
      <point x="203" y="690"/>
      <point x="200" y="687"/>
      <point x="200" y="680" type="curve" smooth="yes"/>
      <point x="200" y="623" type="line" smooth="yes"/>
      <point x="200" y="578"/>
      <point x="205" y="552"/>
      <point x="215" y="501" type="curve"/>
      <point x="331" y="501" type="line"/>
      <point x="341" y="552"/>
      <point x="346" y="578"/>
      <point x="346" y="623" type="curve" smooth="yes"/>
      <point x="346" y="680" type="line" smooth="yes"/>
      <point x="346" y="687"/>
      <point x="343" y="690"/>
    </contour>
    <contour>
      <point x="32" y="485" type="curve" smooth="yes"/>
      <point x="32" y="359" type="line" smooth="yes"/>
      <point x="32" y="352"/>
      <point x="35" y="349"/>
      <point x="42" y="349" type="curve" smooth="yes"/>
      <point x="84" y="349" type="line" smooth="yes"/>
      <point x="117" y="349"/>
      <point x="148" y="352"/>
      <point x="191" y="364" type="curve"/>
      <point x="191" y="480" type="line"/>
      <point x="148" y="492"/>
      <point x="117" y="495"/>
      <point x="84" y="495" type="curve" smooth="yes"/>
      <point x="42" y="495" type="line" smooth="yes"/>
      <point x="35" y="495"/>
      <point x="32" y="492"/>
    </contour>
    <contour>
      <point x="356" y="480" type="curve"/>
      <point x="356" y="364" type="line"/>
      <point x="399" y="352"/>
      <point x="430" y="349"/>
      <point x="463" y="349" type="curve" smooth="yes"/>
      <point x="505" y="349" type="line" smooth="yes"/>
      <point x="512" y="349"/>
      <point x="515" y="352"/>
      <point x="515" y="359" type="curve" smooth="yes"/>
      <point x="515" y="485" type="line" smooth="yes"/>
      <point x="515" y="492"/>
      <point x="512" y="495"/>
      <point x="505" y="495" type="curve" smooth="yes"/>
      <point x="463" y="495" type="line" smooth="yes"/>
      <point x="430" y="495"/>
      <point x="399" y="492"/>
    </contour>
    <contour>
      <point x="211" y="-129" type="curve" smooth="yes"/>
      <point x="338" y="-130" type="line" smooth="yes"/>
      <point x="345" y="-130"/>
      <point x="348" y="-127"/>
      <point x="348" y="-119" type="curve" smooth="yes"/>
      <point x="348" y="-82" type="line" smooth="yes"/>
      <point x="348" y="-37"/>
      <point x="343" y="-11"/>
      <point x="333" y="40" type="curve"/>
      <point x="216" y="40" type="line"/>
      <point x="206" y="-11"/>
      <point x="201" y="-37"/>
      <point x="201" y="-82" type="curve" smooth="yes"/>
      <point x="201" y="-119" type="line" smooth="yes"/>
      <point x="201" y="-126"/>
      <point x="204" y="-129"/>
    </contour>
    <contour>
      <point x="516" y="56" type="curve" smooth="yes"/>
      <point x="516" y="182" type="line" smooth="yes"/>
      <point x="516" y="189"/>
      <point x="513" y="192"/>
      <point x="506" y="192" type="curve" smooth="yes"/>
      <point x="464" y="192" type="line" smooth="yes"/>
      <point x="431" y="192"/>
      <point x="400" y="189"/>
      <point x="357" y="177" type="curve"/>
      <point x="357" y="61" type="line"/>
      <point x="400" y="49"/>
      <point x="431" y="46"/>
      <point x="464" y="46" type="curve" smooth="yes"/>
      <point x="506" y="46" type="line" smooth="yes"/>
      <point x="513" y="46"/>
      <point x="516" y="49"/>
    </contour>
    <contour>
      <point x="43" y="192" type="line" smooth="yes"/>
      <point x="36" y="192"/>
      <point x="33" y="189"/>
      <point x="33" y="182" type="curve" smooth="yes"/>
      <point x="33" y="56" type="line" smooth="yes"/>
      <point x="33" y="49"/>
      <point x="36" y="46"/>
      <point x="42" y="46" type="curve" smooth="yes"/>
      <point x="84" y="46" type="line" smooth="yes"/>
      <point x="117" y="46"/>
      <point x="148" y="49"/>
      <point x="191" y="61" type="curve"/>
      <point x="192" y="177" type="line"/>
      <point x="149" y="189"/>
      <point x="118" y="192"/>
      <point x="85" y="192" type="curve" smooth="yes"/>
    </contour>
    <contour>
      <point x="218" y="353" type="line"/>
      <point x="209" y="330"/>
      <point x="203" y="306"/>
      <point x="203" y="282" type="curve" smooth="yes"/>
      <point x="203" y="264" type="line" smooth="yes"/>
      <point x="203" y="241"/>
      <point x="209" y="216"/>
      <point x="218" y="193" type="curve"/>
      <point x="332" y="193" type="line"/>
      <point x="341" y="216"/>
      <point x="347" y="240"/>
      <point x="347" y="264" type="curve" smooth="yes"/>
      <point x="347" y="282" type="line" smooth="yes"/>
      <point x="347" y="305"/>
      <point x="341" y="330"/>
      <point x="332" y="353" type="curve"/>
    </contour>
  </outline>
</glyph>
<glyph name="zerosuperior" format="2">
  <advance width="436"/>
  <unicode hex="2070"/>
  <outline>
    <contour>
      <point x="217" y="781" type="curve" smooth="yes"/>
      <point x="80" y="781"/>
      <point x="28" y="735"/>
      <point x="28" y="565" type="curve" smooth="yes"/>
      <point x="28" y="395"/>
      <point x="80" y="349"/>
      <point x="217" y="349" type="curve" smooth="yes"/>
      <point x="355" y="349"/>
      <point x="408" y="395"/>
      <point x="408" y="565" type="curve" smooth="yes"/>
      <point x="408" y="735"/>
      <point x="355" y="781"/>
    </contour>
    <contour>
      <point x="217" y="664" type="curve" smooth="yes"/>
      <point x="248" y="664"/>
      <point x="251" y="647"/>
      <point x="251" y="565" type="curve" smooth="yes"/>
      <point x="251" y="483"/>
      <point x="248" y="466"/>
      <point x="217" y="466" type="curve" smooth="yes"/>
      <point x="187" y="466"/>
      <point x="184" y="483"/>
      <point x="184" y="565" type="curve" smooth="yes"/>
      <point x="184" y="647"/>
      <point x="187" y="664"/>
    </contour>
  </outline>
</glyph>
<glyph name="foursuperior" format="2">
  <advance width="447"/>
  <unicode hex="2074"/>
  <outline>
    <contour>
      <point x="123" y="776" type="line"/>
      <point x="18" y="487" type="line" smooth="yes"/>
      <point x="6" y="455"/>
      <point x="28" y="425"/>
      <point x="62" y="425" type="curve" smooth="yes"/>
      <point x="385" y="425" type="line"/>
      <point x="422" y="437" type="line"/>
      <point x="422" y="533" type="line"/>
      <point x="200" y="533" type="line" smooth="yes"/>
      <point x="191" y="533"/>
      <point x="186" y="539"/>
      <point x="189" y="548" type="curve" smooth="yes"/>
      <point x="272" y="776" type="line"/>
    </contour>
    <contour>
      <point x="385" y="684" type="line"/>
      <point x="265" y="684" type="line"/>
      <point x="244" y="620" type="line"/>
      <point x="244" y="360" type="line"/>
      <point x="385" y="360" type="line"/>
    </contour>
  </outline>
</glyph>
<glyph name="sixsuperior" format="2">
  <advance width="435"/>
  <unicode hex="2076"/>
  <outline>
    <contour>
      <point x="236" y="781" type="curve" smooth="yes"/>
      <point x="111" y="781"/>
      <point x="38" y="752"/>
      <point x="38" y="562" type="curve" smooth="yes"/>
      <point x="38" y="387"/>
      <point x="86" y="349"/>
      <point x="215" y="349" type="curve" smooth="yes"/>
      <point x="352" y="349"/>
      <point x="398" y="392"/>
      <point x="398" y="506" type="curve" smooth="yes"/>
      <point x="398" y="591"/>
      <point x="357" y="626"/>
      <point x="264" y="626" type="curve" smooth="yes"/>
      <point x="202" y="626"/>
      <point x="164" y="610"/>
      <point x="123" y="547" type="curve"/>
      <point x="125" y="491" type="line"/>
      <point x="174" y="518"/>
      <point x="186" y="527"/>
      <point x="215" y="527" type="curve" smooth="yes"/>
      <point x="232" y="527"/>
      <point x="246" y="525"/>
      <point x="246" y="497" type="curve" smooth="yes"/>
      <point x="246" y="471"/>
      <point x="237" y="462"/>
      <point x="220" y="462" type="curve" smooth="yes"/>
      <point x="190" y="462"/>
      <point x="191" y="494"/>
      <point x="191" y="555" type="curve" smooth="yes"/>
      <point x="191" y="657"/>
      <point x="191" y="670"/>
      <point x="236" y="670" type="curve" smooth="yes"/>
      <point x="288" y="670"/>
      <point x="329" y="670"/>
      <point x="365" y="670" type="curve"/>
      <point x="370" y="768" type="line"/>
      <point x="325" y="781"/>
      <point x="259" y="781"/>
    </contour>
  </outline>
</glyph>
<glyph name="ninesuperior" format="2">
  <advance width="435"/>
  <unicode hex="2079"/>
  <outline>
    <contour>
      <point x="202" y="349" type="curve" smooth="yes"/>
      <point x="330" y="349"/>
      <point x="400" y="375"/>
      <point x="400" y="568" type="curve" smooth="yes"/>
      <point x="400" y="746"/>
      <point x="355" y="781"/>
      <point x="223" y="781" type="curve" smooth="yes"/>
      <point x="89" y="781"/>
      <point x="41" y="735"/>
      <point x="41" y="629" type="curve" smooth="yes"/>
      <point x="41" y="542"/>
      <point x="84" y="504"/>
      <point x="174" y="504" type="curve" smooth="yes"/>
      <point x="236" y="504"/>
      <point x="274" y="520"/>
      <point x="315" y="583" type="curve"/>
      <point x="313" y="639" type="line"/>
      <point x="264" y="612"/>
      <point x="252" y="603"/>
      <point x="223" y="603" type="curve" smooth="yes"/>
      <point x="206" y="603"/>
      <point x="193" y="605"/>
      <point x="193" y="633" type="curve" smooth="yes"/>
      <point x="193" y="659"/>
      <point x="201" y="668"/>
      <point x="218" y="668" type="curve" smooth="yes"/>
      <point x="248" y="668"/>
      <point x="247" y="636"/>
      <point x="247" y="575" type="curve" smooth="yes"/>
      <point x="247" y="476"/>
      <point x="244" y="460"/>
      <point x="202" y="460" type="curve" smooth="yes"/>
      <point x="150" y="460"/>
      <point x="101" y="460"/>
      <point x="65" y="460" type="curve"/>
      <point x="60" y="362" type="line"/>
      <point x="105" y="349"/>
      <point x="179" y="349"/>
    </contour>
  </outline>
</glyph>
<glyph name="peseta" format="2">
  <advance width="688"/>
  <unicode hex="20A7"/>
  <outline>
    <contour>
      <point x="320" y="700" type="curve" smooth="yes"/>
      <point x="182" y="700"/>
      <point x="165" y="699"/>
      <point x="73" y="690" type="curve"/>
      <point x="88" y="542" type="line"/>
      <point x="122" y="546"/>
      <point x="179" y="547"/>
      <point x="315" y="547" type="curve" smooth="yes"/>
      <point x="374" y="547"/>
      <point x="389" y="531"/>
      <point x="389" y="465" type="curve" smooth="yes"/>
      <point x="389" y="401"/>
      <point x="374" y="385"/>
      <point x="315" y="385" type="curve" smooth="yes"/>
      <point x="224" y="385"/>
      <point x="174" y="385"/>
      <point x="87" y="385" type="curve"/>
      <point x="84" y="287" type="line"/>
      <point x="116" y="265"/>
      <point x="216" y="232"/>
      <point x="350" y="232" type="curve" smooth="yes"/>
      <point x="539" y="232"/>
      <point x="606" y="283"/>
      <point x="606" y="465" type="curve" smooth="yes"/>
      <point x="606" y="649"/>
      <point x="539" y="700"/>
    </contour>
    <contour>
      <point x="290" y="690" type="line"/>
      <point x="73" y="690" type="line"/>
      <point x="73" y="0" type="line"/>
      <point x="290" y="0" type="line"/>
    </contour>
    <contour>
      <point x="8" y="508" type="line"/>
      <point x="10" y="428" type="line"/>
      <point x="675" y="428" type="line"/>
      <point x="680" y="508" type="line"/>
    </contour>
  </outline>
</glyph>
<glyph name="ruble" format="2">
  <advance width="630"/>
  <unicode hex="20BD"/>
  <outline>
    <contour>
      <point x="320" y="700" type="curve" smooth="yes"/>
      <point x="182" y="700"/>
      <point x="165" y="699"/>
      <point x="73" y="690" type="curve"/>
      <point x="88" y="542" type="line"/>
      <point x="122" y="546"/>
      <point x="179" y="547"/>
      <point x="315" y="547" type="curve" smooth="yes"/>
      <point x="374" y="547"/>
      <point x="389" y="531"/>
      <point x="389" y="465" type="curve" smooth="yes"/>
      <point x="389" y="401"/>
      <point x="374" y="385"/>
      <point x="315" y="385" type="curve" smooth="yes"/>
      <point x="224" y="385"/>
      <point x="99" y="385"/>
      <point x="12" y="385" type="curve"/>
      <point x="9" y="252" type="line"/>
      <point x="131" y="235"/>
      <point x="216" y="232"/>
      <point x="350" y="232" type="curve" smooth="yes"/>
      <point x="539" y="232"/>
      <point x="606" y="283"/>
      <point x="606" y="465" type="curve" smooth="yes"/>
      <point x="606" y="649"/>
      <point x="539" y="700"/>
    </contour>
    <contour>
      <point x="290" y="690" type="line"/>
      <point x="73" y="690" type="line"/>
      <point x="73" y="0" type="line"/>
      <point x="290" y="0" type="line"/>
    </contour>
    <contour>
      <point x="8" y="170" type="line"/>
      <point x="10" y="83" type="line"/>
      <point x="483" y="83" type="line"/>
      <point x="488" y="170" type="line"/>
    </contour>
  </outline>
</glyph>
<glyph name="literSign" format="2">
  <advance width="564"/>
  <unicode hex="2113"/>
  <outline>
    <contour>
      <point x="325" y="669" type="curve" smooth="yes"/>
      <point x="178" y="669"/>
      <point x="100" y="601"/>
      <point x="100" y="480" type="curve" smooth="yes"/>
      <point x="100" y="155" type="line" smooth="yes"/>
      <point x="100" y="38"/>
      <point x="163" y="-14"/>
      <point x="272" y="-14" type="curve" smooth="yes"/>
      <point x="320" y="-14"/>
      <point x="377" y="-4"/>
      <point x="441" y="15" type="curve"/>
      <point x="435" y="117" type="line"/>
      <point x="332" y="117" type="line" smooth="yes"/>
      <point x="281" y="117"/>
      <point x="288" y="155"/>
      <point x="288" y="207" type="curve" smooth="yes"/>
      <point x="288" y="441" type="line" smooth="yes"/>
      <point x="288" y="485"/>
      <point x="287" y="510"/>
      <point x="321" y="510" type="curve" smooth="yes"/>
      <point x="350" y="510"/>
      <point x="352" y="482"/>
      <point x="352" y="441" type="curve" smooth="yes"/>
      <point x="352" y="395"/>
      <point x="328" y="373"/>
      <point x="289" y="353" type="curve" smooth="yes"/>
      <point x="223" y="319"/>
      <point x="102" y="281"/>
      <point x="16" y="261" type="curve"/>
      <point x="47" y="116" type="line"/>
      <point x="144" y="138"/>
      <point x="307" y="190"/>
      <point x="394" y="238" type="curve" smooth="yes"/>
      <point x="477" y="284"/>
      <point x="539" y="344"/>
      <point x="539" y="476" type="curve" smooth="yes"/>
      <point x="539" y="601"/>
      <point x="475" y="669"/>
    </contour>
  </outline>
</glyph>
<glyph name="partialdiff" format="2">
  <advance width="613"/>
  <unicode hex="2202"/>
  <outline>
    <contour>
      <point x="104" y="704" type="curve"/>
      <point x="104" y="568" type="line"/>
      <point x="385" y="568"/>
      <point x="385" y="498"/>
      <point x="370" y="326" type="curve" smooth="yes"/>
      <point x="359" y="203"/>
      <point x="353" y="144"/>
      <point x="290" y="144" type="curve" smooth="yes"/>
      <point x="244" y="144"/>
      <point x="230" y="176"/>
      <point x="236" y="242" type="curve" smooth="yes"/>
      <point x="239" y="274"/>
      <point x="255" y="310"/>
      <point x="307" y="310" type="curve" smooth="yes"/>
      <point x="349" y="310"/>
      <point x="371" y="305"/>
      <point x="449" y="291" type="curve"/>
      <point x="456" y="325" type="line"/>
      <point x="398" y="430"/>
      <point x="345" y="457"/>
      <point x="254" y="457" type="curve" smooth="yes"/>
      <point x="92" y="457"/>
      <point x="35" y="345"/>
      <point x="27" y="247" type="curve" smooth="yes"/>
      <point x="18" y="136"/>
      <point x="63" y="-12"/>
      <point x="279" y="-12" type="curve" smooth="yes"/>
      <point x="465" y="-12"/>
      <point x="572" y="55"/>
      <point x="585" y="339" type="curve" smooth="yes"/>
      <point x="599" y="638"/>
      <point x="449" y="718"/>
    </contour>
  </outline>
</glyph>
<glyph name="summation" format="2">
  <advance width="598"/>
  <unicode hex="2211"/>
  <outline>
    <contour>
      <point x="562" y="690" type="line"/>
      <point x="44" y="690" type="line"/>
      <point x="44" y="548" type="line"/>
      <point x="164" y="321" type="line"/>
      <point x="32" y="-21" type="line"/>
      <point x="32" y="-163" type="line"/>
      <point x="572" y="-163" type="line"/>
      <point x="572" y="-21" type="line"/>
      <point x="265" y="-21" type="line"/>
      <point x="398" y="321" type="line"/>
      <point x="279" y="548" type="line"/>
      <point x="562" y="548" type="line"/>
    </contour>
  </outline>
</glyph>
<glyph name="divisionslash" format="2">
  <advance width="599"/>
  <unicode hex="2215"/>
  <outline>
    <contour>
      <point x="591" y="709" type="line"/>
      <point x="427" y="709" type="line"/>
      <point x="8" y="-58" type="line"/>
      <point x="172" y="-58" type="line"/>
    </contour>
  </outline>
</glyph>
<glyph name="greaterequal" format="2">
  <advance width="554"/>
  <unicode hex="2265"/>
  <outline>
    <contour>
      <point x="62" y="589" type="line"/>
      <point x="62" y="426" type="line"/>
      <point x="327" y="393" type="line"/>
      <point x="62" y="358" type="line"/>
      <point x="62" y="195" type="line"/>
      <point x="504" y="313" type="line"/>
      <point x="504" y="474" type="line"/>
    </contour>
    <contour>
      <point x="516" y="182" type="line"/>
      <point x="65" y="182" type="line"/>
      <point x="65" y="24" type="line"/>
      <point x="516" y="24" type="line"/>
    </contour>
  </outline>
</glyph>
<glyph name=".notdef" format="2">
  <advance width="556"/>
  <outline>
    <contour>
      <point x="104" y="690" type="line"/>
      <point x="63" y="690" type="line"/>
      <point x="63" y="0" type="line"/>
      <point x="104" y="0" type="line"/>
    </contour>
    <contour>
      <point x="493" y="690" type="line"/>
      <point x="452" y="690" type="line"/>
      <point x="452" y="0" type="line"/>
      <point x="493" y="0" type="line"/>
    </contour>
    <contour>
      <point x="63" y="690" type="line"/>
      <point x="63" y="649" type="line"/>
      <point x="493" y="649" type="line"/>
      <point x="493" y="690" type="line"/>
    </contour>
    <contour>
      <point x="63" y="41" type="line"/>
      <point x="63" y="0" type="line"/>
      <point x="493" y="0" type="line"/>
      <point x="493" y="41" type="line"/>
    </contour>
  </outline>
</glyph>
<glyph name="cent.rvrn" format="2">
  <advance width="541"/>
  <outline>
    <contour>
      <point x="296" y="610" type="curve" smooth="yes"/>
      <point x="97" y="610"/>
      <point x="25" y="540"/>
      <point x="25" y="347" type="curve" smooth="yes"/>
      <point x="25" y="154"/>
      <point x="96" y="84"/>
      <point x="294" y="84" type="curve" smooth="yes"/>
      <point x="372" y="84"/>
      <point x="454" y="95"/>
      <point x="514" y="126" type="curve"/>
      <point x="495" y="247" type="line"/>
      <point x="431" y="240"/>
      <point x="366" y="240"/>
      <point x="332" y="240" type="curve" smooth="yes"/>
      <point x="253" y="240"/>
      <point x="232" y="259"/>
      <point x="232" y="347" type="curve" smooth="yes"/>
      <point x="232" y="434"/>
      <point x="253" y="453"/>
      <point x="332" y="453" type="curve" smooth="yes"/>
      <point x="374" y="453"/>
      <point x="422" y="453"/>
      <point x="486" y="453" type="curve"/>
      <point x="507" y="573" type="line"/>
      <point x="446" y="602"/>
      <point x="358" y="610"/>
    </contour>
    <contour>
      <point x="358" y="175" type="line"/>
      <point x="203" y="175" type="line"/>
      <point x="182" y="0" type="line"/>
      <point x="337" y="0" type="line"/>
    </contour>
    <contour>
      <point x="429" y="690" type="line"/>
      <point x="273" y="690" type="line"/>
      <point x="249" y="490" type="line"/>
      <point x="404" y="490" type="line"/>
    </contour>
  </outline>
</glyph>
<glyph name="circumflextilde" format="2">
  <advance width="475"/>
  <anchor x="239" y="550" name="_top"/>
  <outline>
    <contour>
      <point x="316" y="735" type="line"/>
      <point x="164" y="735" type="line"/>
      <point x="29" y="612" type="line"/>
      <point x="79" y="535" type="line"/>
      <point x="236" y="620" type="line"/>
      <point x="244" y="620" type="line"/>
      <point x="398" y="535" type="line"/>
      <point x="446" y="604" type="line"/>
    </contour>
    <contour>
      <point x="147" y="928" type="curve" smooth="yes"/>
      <point x="99" y="932"/>
      <point x="50" y="883"/>
      <point x="70" y="775" type="curve"/>
      <point x="149" y="775" type="line"/>
      <point x="149" y="804"/>
      <point x="147" y="814"/>
      <point x="175" y="809" type="curve" smooth="yes"/>
      <point x="215" y="802"/>
      <point x="267" y="776"/>
      <point x="329" y="770" type="curve" smooth="yes"/>
      <point x="385" y="765"/>
      <point x="425" y="822"/>
      <point x="406" y="923" type="curve"/>
      <point x="327" y="923" type="line"/>
      <point x="327" y="894"/>
      <point x="328" y="883"/>
      <point x="301" y="889" type="curve" smooth="yes"/>
      <point x="253" y="900"/>
      <point x="209" y="923"/>
    </contour>
  </outline>
</glyph>
<glyph name="dieresisacute" format="2">
  <advance width="402"/>
  <anchor x="201" y="553" name="_top"/>
  <outline>
    <contour>
      <point x="318" y="705" type="curve" smooth="yes"/>
      <point x="256" y="705" type="line" smooth="yes"/>
      <point x="232" y="705"/>
      <point x="220" y="693"/>
      <point x="220" y="669" type="curve" smooth="yes"/>
      <point x="220" y="612" type="line" smooth="yes"/>
      <point x="220" y="588"/>
      <point x="232" y="576"/>
      <point x="256" y="576" type="curve" smooth="yes"/>
      <point x="318" y="576" type="line" smooth="yes"/>
      <point x="342" y="576"/>
      <point x="354" y="588"/>
      <point x="354" y="612" type="curve" smooth="yes"/>
      <point x="354" y="669" type="line" smooth="yes"/>
      <point x="354" y="693"/>
      <point x="342" y="705"/>
    </contour>
    <contour>
      <point x="268" y="952" type="line"/>
      <point x="97" y="811" type="line"/>
      <point x="156" y="738" type="line"/>
      <point x="351" y="839" type="line"/>
    </contour>
    <contour>
      <point x="146" y="705" type="curve" smooth="yes"/>
      <point x="84" y="705" type="line" smooth="yes"/>
      <point x="60" y="705"/>
      <point x="48" y="693"/>
      <point x="48" y="669" type="curve" smooth="yes"/>
      <point x="48" y="612" type="line" smooth="yes"/>
      <point x="48" y="588"/>
      <point x="60" y="576"/>
      <point x="84" y="576" type="curve" smooth="yes"/>
      <point x="146" y="576" type="line" smooth="yes"/>
      <point x="170" y="576"/>
      <point x="182" y="588"/>
      <point x="182" y="612" type="curve" smooth="yes"/>
      <point x="182" y="669" type="line" smooth="yes"/>
      <point x="182" y="693"/>
      <point x="170" y="705"/>
    </contour>
  </outline>
</glyph>
<glyph name="dieresismacron" format="2">
  <advance width="402"/>
  <anchor x="201" y="553" name="_top"/>
  <outline>
    <contour>
      <point x="318" y="685" type="curve" smooth="yes"/>
      <point x="256" y="685" type="line" smooth="yes"/>
      <point x="232" y="685"/>
      <point x="220" y="673"/>
      <point x="220" y="649" type="curve" smooth="yes"/>
      <point x="220" y="592" type="line" smooth="yes"/>
      <point x="220" y="568"/>
      <point x="232" y="556"/>
      <point x="256" y="556" type="curve" smooth="yes"/>
      <point x="318" y="556" type="line" smooth="yes"/>
      <point x="342" y="556"/>
      <point x="354" y="568"/>
      <point x="354" y="592" type="curve" smooth="yes"/>
      <point x="354" y="649" type="line" smooth="yes"/>
      <point x="354" y="673"/>
      <point x="342" y="685"/>
    </contour>
    <contour>
      <point x="146" y="685" type="curve" smooth="yes"/>
      <point x="84" y="685" type="line" smooth="yes"/>
      <point x="60" y="685"/>
      <point x="48" y="673"/>
      <point x="48" y="649" type="curve" smooth="yes"/>
      <point x="48" y="592" type="line" smooth="yes"/>
      <point x="48" y="568"/>
      <point x="60" y="556"/>
      <point x="84" y="556" type="curve" smooth="yes"/>
      <point x="146" y="556" type="line" smooth="yes"/>
      <point x="170" y="556"/>
      <point x="182" y="568"/>
      <point x="182" y="592" type="curve" smooth="yes"/>
      <point x="182" y="649" type="line" smooth="yes"/>
      <point x="182" y="673"/>
      <point x="170" y="685"/>
    </contour>
    <contour>
      <point x="40" y="838" type="line"/>
      <point x="40" y="727" type="line"/>
      <point x="362" y="727" type="line"/>
      <point x="362" y="838" type="line"/>
    </contour>
  </outline>
</glyph>
<glyph name="dollar.BRACKET.144" format="2">
  <advance width="595"/>
  <outline>
    <contour>
      <point x="309" y="704" type="curve" smooth="yes"/>
      <point x="105" y="704"/>
      <point x="32" y="658"/>
      <point x="32" y="501" type="curve" smooth="yes"/>
      <point x="32" y="400"/>
      <point x="73" y="343"/>
      <point x="181" y="293" type="curve" smooth="yes"/>
      <point x="312" y="233" type="line" smooth="yes"/>
      <point x="349" y="219"/>
      <point x="359" y="210"/>
      <point x="359" y="191" type="curve" smooth="yes"/>
      <point x="359" y="172"/>
      <point x="346" y="167"/>
      <point x="294" y="167" type="curve" smooth="yes"/>
      <point x="260" y="167"/>
      <point x="163" y="169"/>
      <point x="50" y="172" type="curve"/>
      <point x="37" y="20" type="line"/>
      <point x="155" y="-11"/>
      <point x="252" y="-14"/>
      <point x="298" y="-14" type="curve" smooth="yes"/>
      <point x="508" y="-14"/>
      <point x="572" y="42"/>
      <point x="572" y="197" type="curve" smooth="yes"/>
      <point x="572" y="298"/>
      <point x="533" y="357"/>
      <point x="422" y="407" type="curve" smooth="yes"/>
      <point x="303" y="459" type="line" smooth="yes"/>
      <point x="255" y="477"/>
      <point x="243" y="487"/>
      <point x="243" y="506" type="curve" smooth="yes"/>
      <point x="243" y="527"/>
      <point x="255" y="532"/>
      <point x="303" y="532" type="curve" smooth="yes"/>
      <point x="388" y="532"/>
      <point x="482" y="531"/>
      <point x="540" y="530" type="curve"/>
      <point x="553" y="669" type="line"/>
      <point x="473" y="698"/>
      <point x="379" y="704"/>
    </contour>
    <contour>
      <point x="349" y="65" type="line"/>
      <point x="194" y="65" type="line"/>
      <point x="176" y="-110" type="line"/>
      <point x="331" y="-110" type="line"/>
    </contour>
    <contour>
      <point x="444" y="789" type="line"/>
      <point x="288" y="789" type="line"/>
      <point x="262" y="589" type="line"/>
      <point x="417" y="589" type="line"/>
    </contour>
  </outline>
</glyph>
<glyph name="eight.osf" format="2">
  <advance width="598"/>
  <outline>
    <contour>
      <point x="299" y="704" type="curve" smooth="yes"/>
      <point x="85" y="704"/>
      <point x="46" y="643"/>
      <point x="46" y="518" type="curve" smooth="yes"/>
      <point x="46" y="448"/>
      <point x="79" y="371"/>
      <point x="154" y="360" type="curve"/>
      <point x="154" y="356" type="line"/>
      <point x="54" y="347"/>
      <point x="28" y="260"/>
      <point x="28" y="172" type="curve" smooth="yes"/>
      <point x="28" y="39"/>
      <point x="79" y="-16"/>
      <point x="299" y="-15" type="curve" smooth="yes"/>
      <point x="522" y="-14"/>
      <point x="570" y="39"/>
      <point x="570" y="172" type="curve" smooth="yes"/>
      <point x="570" y="260"/>
      <point x="544" y="347"/>
      <point x="444" y="356" type="curve"/>
      <point x="444" y="360" type="line"/>
      <point x="519" y="371"/>
      <point x="552" y="448"/>
      <point x="552" y="518" type="curve" smooth="yes"/>
      <point x="552" y="643"/>
      <point x="515" y="704"/>
    </contour>
    <contour>
      <point x="301" y="292" type="curve" smooth="yes"/>
      <point x="349" y="292"/>
      <point x="366" y="274"/>
      <point x="366" y="212" type="curve" smooth="yes"/>
      <point x="366" y="158"/>
      <point x="356" y="137"/>
      <point x="300" y="137" type="curve" smooth="yes"/>
      <point x="242" y="137"/>
      <point x="231" y="158"/>
      <point x="231" y="212" type="curve" smooth="yes"/>
      <point x="231" y="272"/>
      <point x="248" y="292"/>
    </contour>
    <contour>
      <point x="300" y="564" type="curve" smooth="yes"/>
      <point x="349" y="564"/>
      <point x="358" y="547"/>
      <point x="358" y="489" type="curve" smooth="yes"/>
      <point x="358" y="441"/>
      <point x="341" y="424"/>
      <point x="300" y="424" type="curve" smooth="yes"/>
      <point x="257" y="424"/>
      <point x="240" y="441"/>
      <point x="240" y="489" type="curve" smooth="yes"/>
      <point x="240" y="547"/>
      <point x="250" y="564"/>
    </contour>
  </outline>
</glyph>
<glyph name="eth.BRACKET.144" format="2">
  <advance width="604"/>
  <outline>
    <contour>
      <point x="146" y="698" type="curve"/>
      <point x="129" y="568" type="line"/>
      <point x="332" y="583"/>
      <point x="356" y="500"/>
      <point x="356" y="290" type="curve" smooth="yes"/>
      <point x="356" y="155"/>
      <point x="349" y="130"/>
      <point x="299" y="130" type="curve" smooth="yes"/>
      <point x="256" y="130"/>
      <point x="247" y="147"/>
      <point x="247" y="218" type="curve" smooth="yes"/>
      <point x="247" y="305"/>
      <point x="265" y="311"/>
      <point x="302" y="311" type="curve" smooth="yes"/>
      <point x="353" y="311"/>
      <point x="397" y="303"/>
      <point x="423" y="292" type="curve"/>
      <point x="431" y="376" type="line"/>
      <point x="396" y="446"/>
      <point x="304" y="453"/>
      <point x="252" y="453" type="curve" smooth="yes"/>
      <point x="87" y="453"/>
      <point x="27" y="378"/>
      <point x="27" y="214" type="curve" smooth="yes"/>
      <point x="27" y="58"/>
      <point x="112" y="-14"/>
      <point x="297" y="-14" type="curve" smooth="yes"/>
      <point x="489" y="-14"/>
      <point x="576" y="60"/>
      <point x="576" y="291" type="curve" smooth="yes"/>
      <point x="576" y="533"/>
      <point x="447" y="719"/>
    </contour>
    <contour>
      <point x="439" y="754" type="line"/>
      <point x="282" y="596" type="line"/>
      <point x="401" y="485" type="line"/>
      <point x="558" y="641" type="line"/>
    </contour>
  </outline>
</glyph>
<glyph name="f_f_y" format="2">
  <advance width="1344"/>
  <outline>
    <contour>
      <point x="826" y="500" type="curve" smooth="yes"/>
      <point x="93" y="500" type="line"/>
      <point x="8" y="495" type="line"/>
      <point x="8" y="374" type="line"/>
      <point x="746" y="374" type="line" smooth="yes"/>
      <point x="769" y="374"/>
      <point x="784" y="363"/>
      <point x="791" y="341" type="curve" smooth="yes"/>
      <point x="887" y="49" type="line" smooth="yes"/>
      <point x="896" y="19"/>
      <point x="921" y="0"/>
      <point x="953" y="0" type="curve" smooth="yes"/>
      <point x="999" y="0" type="line"/>
      <point x="1064" y="130" type="line"/>
      <point x="1034" y="130" type="line"/>
      <point x="1030" y="161"/>
      <point x="1026" y="193"/>
      <point x="1021" y="224" type="curve"/>
      <point x="990" y="367" type="line" smooth="yes"/>
      <point x="971" y="456"/>
      <point x="917" y="500"/>
    </contour>
    <contour>
      <point x="273" y="714" type="curve" smooth="yes"/>
      <point x="139" y="714"/>
      <point x="95" y="645"/>
      <point x="92" y="551" type="curve" smooth="yes"/>
      <point x="92" y="0" type="line"/>
      <point x="295" y="0" type="line"/>
      <point x="295" y="522" type="line" smooth="yes"/>
      <point x="295" y="561"/>
      <point x="306" y="574"/>
      <point x="343" y="574" type="curve" smooth="yes"/>
      <point x="416" y="574" type="line"/>
      <point x="436" y="700" type="line"/>
      <point x="392" y="710"/>
      <point x="309" y="714"/>
    </contour>
    <contour>
      <point x="653" y="724" type="curve" smooth="yes"/>
      <point x="516" y="724"/>
      <point x="469" y="655"/>
      <point x="469" y="561" type="curve" smooth="yes"/>
      <point x="469" y="0" type="line"/>
      <point x="673" y="0" type="line"/>
      <point x="673" y="532" type="line" smooth="yes"/>
      <point x="673" y="571"/>
      <point x="684" y="584"/>
      <point x="721" y="584" type="curve" smooth="yes"/>
      <point x="809" y="584" type="line"/>
      <point x="829" y="710" type="line"/>
      <point x="779" y="720"/>
      <point x="693" y="724"/>
    </contour>
    <contour>
      <point x="1346" y="500" type="line"/>
      <point x="1123" y="500" type="line"/>
      <point x="1064" y="224" type="line" smooth="yes"/>
      <point x="1057" y="188"/>
      <point x="1046" y="127"/>
      <point x="1031" y="94" type="curve" smooth="yes"/>
      <point x="994" y="14" type="line" smooth="yes"/>
      <point x="968" y="-42"/>
      <point x="923" y="-67"/>
      <point x="840" y="-84" type="curve"/>
      <point x="854" y="-197" type="line"/>
      <point x="1061" y="-241"/>
      <point x="1153" y="-96"/>
      <point x="1187" y="14" type="curve" smooth="yes"/>
    </contour>
  </outline>
</glyph>
<glyph name="f_y" format="2">
  <advance width="967"/>
  <outline>
    <contour>
      <point x="276" y="724" type="curve" smooth="yes"/>
      <point x="139" y="724"/>
      <point x="92" y="655"/>
      <point x="92" y="561" type="curve" smooth="yes"/>
      <point x="92" y="0" type="line"/>
      <point x="303" y="0" type="line"/>
      <point x="303" y="532" type="line" smooth="yes"/>
      <point x="303" y="571"/>
      <point x="314" y="584"/>
      <point x="351" y="584" type="curve" smooth="yes"/>
      <point x="439" y="584" type="line"/>
      <point x="459" y="710" type="line"/>
      <point x="409" y="720"/>
      <point x="316" y="724"/>
    </contour>
    <contour>
      <point x="449" y="500" type="curve" smooth="yes"/>
      <point x="93" y="500" type="line"/>
      <point x="8" y="495" type="line"/>
      <point x="8" y="374" type="line"/>
      <point x="369" y="374" type="line" smooth="yes"/>
      <point x="392" y="374"/>
      <point x="407" y="363"/>
      <point x="414" y="341" type="curve" smooth="yes"/>
      <point x="510" y="49" type="line" smooth="yes"/>
      <point x="519" y="19"/>
      <point x="544" y="0"/>
      <point x="576" y="0" type="curve" smooth="yes"/>
      <point x="622" y="0" type="line"/>
      <point x="687" y="130" type="line"/>
      <point x="657" y="130" type="line"/>
      <point x="653" y="161"/>
      <point x="649" y="193"/>
      <point x="644" y="224" type="curve" smooth="yes"/>
      <point x="613" y="367" type="line" smooth="yes"/>
      <point x="594" y="456"/>
      <point x="540" y="500"/>
    </contour>
    <contour>
      <point x="969" y="500" type="line"/>
      <point x="746" y="500" type="line"/>
      <point x="687" y="224" type="line" smooth="yes"/>
      <point x="680" y="188"/>
      <point x="669" y="127"/>
      <point x="654" y="94" type="curve" smooth="yes"/>
      <point x="617" y="14" type="line" smooth="yes"/>
      <point x="591" y="-42"/>
      <point x="546" y="-67"/>
      <point x="463" y="-84" type="curve"/>
      <point x="477" y="-197" type="line"/>
      <point x="684" y="-241"/>
      <point x="776" y="-96"/>
      <point x="810" y="14" type="curve" smooth="yes"/>
    </contour>
  </outline>
</glyph>
<glyph name="five.osf" format="2">
  <advance width="535"/>
  <outline>
    <contour>
      <point x="482" y="530" type="line"/>
      <point x="60" y="530" type="line"/>
      <point x="41" y="225" type="line" smooth="yes"/>
      <point x="39" y="190"/>
      <point x="64" y="162"/>
      <point x="100" y="157" type="curve" smooth="yes"/>
      <point x="211" y="141" type="line" smooth="yes"/>
      <point x="280" y="131"/>
      <point x="292" y="125"/>
      <point x="288" y="78" type="curve" smooth="yes"/>
      <point x="284" y="32"/>
      <point x="280" y="21"/>
      <point x="200" y="21" type="curve" smooth="yes"/>
      <point x="150" y="21"/>
      <point x="102" y="24"/>
      <point x="34" y="27" type="curve"/>
      <point x="16" y="-134" type="line"/>
      <point x="108" y="-145"/>
      <point x="184" y="-152"/>
      <point x="257" y="-152" type="curve" smooth="yes"/>
      <point x="441" y="-152"/>
      <point x="503" y="-49"/>
      <point x="503" y="80" type="curve" smooth="yes"/>
      <point x="503" y="180"/>
      <point x="478" y="276"/>
      <point x="328" y="296" type="curve" smooth="yes"/>
      <point x="215" y="311" type="line"/>
      <point x="221" y="375" type="line"/>
      <point x="475" y="375" type="line"/>
    </contour>
  </outline>
</glyph>
<glyph name="four.osf" format="2">
  <advance width="639"/>
  <outline>
    <contour>
      <point x="367" y="590" type="line"/>
      <point x="167" y="590" type="line"/>
      <point x="20" y="103" type="line" smooth="yes"/>
      <point x="4" y="50"/>
      <point x="37" y="0"/>
      <point x="94" y="0" type="curve" smooth="yes"/>
      <point x="548" y="0" type="line"/>
      <point x="617" y="20" type="line"/>
      <point x="617" y="138" type="line"/>
      <point x="264" y="138" type="line" smooth="yes"/>
      <point x="249" y="138"/>
      <point x="243" y="148"/>
      <point x="247" y="163" type="curve" smooth="yes"/>
    </contour>
    <contour>
      <point x="546" y="414" type="line"/>
      <point x="384" y="414" type="line"/>
      <point x="349" y="308" type="line"/>
      <point x="349" y="-117" type="line"/>
      <point x="546" y="-117" type="line"/>
    </contour>
  </outline>
</glyph>
<glyph name="hook" format="2">
  <advance width="260"/>
  <anchor x="92" y="526" name="_top"/>
  <outline>
    <contour>
      <point x="68" y="606" type="curve"/>
      <point x="89" y="519" type="line"/>
      <point x="162" y="529"/>
      <point x="228" y="569"/>
      <point x="228" y="658" type="curve" smooth="yes"/>
      <point x="228" y="758"/>
      <point x="145" y="808"/>
      <point x="32" y="765" type="curve"/>
      <point x="53" y="671" type="line"/>
      <point x="81" y="686"/>
      <point x="114" y="683"/>
      <point x="114" y="653" type="curve" smooth="yes"/>
      <point x="114" y="623"/>
      <point x="97" y="617"/>
    </contour>
  </outline>
</glyph>
<glyph name="macrongrave" format="2">
  <advance width="400"/>
  <anchor x="201" y="553" name="_top"/>
  <outline>
    <contour>
      <point x="40" y="683" type="line"/>
      <point x="40" y="560" type="line"/>
      <point x="360" y="560" type="line"/>
      <point x="360" y="683" type="line"/>
    </contour>
    <contour>
      <point x="134" y="930" type="line"/>
      <point x="51" y="817" type="line"/>
      <point x="246" y="716" type="line"/>
      <point x="305" y="789" type="line"/>
    </contour>
  </outline>
</glyph>
<glyph name="nine.osf" format="2">
  <advance width="587"/>
  <outline>
    <contour>
      <point x="285" y="544" type="curve" smooth="yes"/>
      <point x="76" y="544"/>
      <point x="28" y="464"/>
      <point x="28" y="286" type="curve" smooth="yes"/>
      <point x="28" y="179"/>
      <point x="71" y="96"/>
      <point x="219" y="96" type="curve" smooth="yes"/>
      <point x="322" y="96"/>
      <point x="356" y="123"/>
      <point x="424" y="227" type="curve"/>
      <point x="420" y="279" type="line"/>
      <point x="339" y="255"/>
      <point x="331" y="238"/>
      <point x="285" y="238" type="curve" smooth="yes"/>
      <point x="243" y="238"/>
      <point x="231" y="248"/>
      <point x="231" y="291" type="curve" smooth="yes"/>
      <point x="231" y="359"/>
      <point x="237" y="393"/>
      <point x="285" y="393" type="curve" smooth="yes"/>
      <point x="330" y="393"/>
      <point x="342" y="370"/>
      <point x="342" y="226" type="curve" smooth="yes"/>
      <point x="342" y="60"/>
      <point x="340" y="1"/>
      <point x="249" y="1" type="curve" smooth="yes"/>
      <point x="153" y="1"/>
      <point x="130" y="1"/>
      <point x="65" y="2" type="curve"/>
      <point x="56" y="-128" type="line"/>
      <point x="141" y="-150"/>
      <point x="208" y="-150"/>
      <point x="249" y="-150" type="curve" smooth="yes"/>
      <point x="467" y="-150"/>
      <point x="549" y="-91"/>
      <point x="549" y="213" type="curve" smooth="yes"/>
      <point x="549" y="480"/>
      <point x="492" y="544"/>
    </contour>
  </outline>
</glyph>
<glyph name="notequal.rvrn" format="2">
  <advance width="613"/>
  <outline>
    <contour>
      <point x="328" y="202" type="line"/>
      <point x="215" y="241" type="line"/>
      <point x="140" y="35" type="line"/>
      <point x="254" y="-6" type="line"/>
    </contour>
    <contour>
      <point x="282" y="426" type="line"/>
      <point x="395" y="387" type="line"/>
      <point x="458" y="566" type="line"/>
      <point x="347" y="606" type="line"/>
    </contour>
    <component base="equal" xOffset="21"/>
  </outline>
</glyph>
<glyph name="oslash.BRACKET.144" format="2">
  <advance width="611"/>
  <anchor x="306" y="547" name="top"/>
  <outline>
    <contour>
      <point x="284" y="31" type="line"/>
      <point x="145" y="104" type="line"/>
      <point x="79" y="-33" type="line"/>
      <point x="219" y="-104" type="line"/>
    </contour>
    <contour>
      <point x="329" y="486" type="line"/>
      <point x="468" y="413" type="line"/>
      <point x="530" y="541" type="line"/>
      <point x="390" y="613" type="line"/>
    </contour>
    <component base="o"/>
  </outline>
</glyph>
<glyph name="tildeacute" format="2">
  <advance width="460"/>
  <anchor x="236" y="539" name="_top"/>
  <outline>
    <contour>
      <point x="130" y="724" type="curve" smooth="yes"/>
      <point x="77" y="728"/>
      <point x="23" y="674"/>
      <point x="45" y="555" type="curve"/>
      <point x="132" y="555" type="line"/>
      <point x="132" y="587"/>
      <point x="130" y="598"/>
      <point x="160" y="593" type="curve" smooth="yes"/>
      <point x="205" y="585"/>
      <point x="262" y="555"/>
      <point x="330" y="550" type="curve" smooth="yes"/>
      <point x="392" y="546"/>
      <point x="436" y="607"/>
      <point x="415" y="719" type="curve"/>
      <point x="328" y="719" type="line"/>
      <point x="328" y="687"/>
      <point x="329" y="675"/>
      <point x="299" y="681" type="curve" smooth="yes"/>
      <point x="247" y="692"/>
      <point x="198" y="719"/>
    </contour>
    <contour>
      <point x="300" y="962" type="line"/>
      <point x="129" y="821" type="line"/>
      <point x="188" y="748" type="line"/>
      <point x="383" y="849" type="line"/>
    </contour>
  </outline>
</glyph>
